<mxfile host="app.diagrams.net" modified="2022-02-18T16:36:47.121Z" agent="5.0 (Windows)" etag="p4zQku3g3cCPk2JTiJJ-" version="16.6.1" type="github">
  <diagram name="Page-1" id="8ce9d11a-91a2-4d17-14d8-a56ed91bf033">
    <mxGraphModel dx="3707" dy="3773" grid="1" gridSize="10" guides="1" tooltips="1" connect="1" arrows="1" fold="1" page="1" pageScale="1" pageWidth="1100" pageHeight="850" background="none" math="0" shadow="0">
      <root>
        <mxCell id="0" />
        <mxCell id="1" parent="0" />
        <mxCell id="_edwEU55tXUdFOv5jaIl-4" style="edgeStyle=orthogonalEdgeStyle;rounded=0;orthogonalLoop=1;jettySize=auto;html=1;exitX=0.5;exitY=1;exitDx=0;exitDy=0;" parent="1" source="_edwEU55tXUdFOv5jaIl-2" target="_edwEU55tXUdFOv5jaIl-3" edge="1">
          <mxGeometry relative="1" as="geometry" />
        </mxCell>
        <mxCell id="_edwEU55tXUdFOv5jaIl-2" value="&lt;div&gt;$ kubectl get pods&lt;/div&gt;" style="rounded=1;whiteSpace=wrap;html=1;fillColor=#647687;fontColor=#ffffff;strokeColor=#314354;" parent="1" vertex="1">
          <mxGeometry x="-960" y="180" width="120" height="40" as="geometry" />
        </mxCell>
        <mxCell id="_edwEU55tXUdFOv5jaIl-11" style="edgeStyle=orthogonalEdgeStyle;rounded=0;orthogonalLoop=1;jettySize=auto;html=1;exitX=0.5;exitY=1;exitDx=0;exitDy=0;entryX=0.5;entryY=0;entryDx=0;entryDy=0;" parent="1" source="_edwEU55tXUdFOv5jaIl-3" target="_edwEU55tXUdFOv5jaIl-8" edge="1">
          <mxGeometry relative="1" as="geometry" />
        </mxCell>
        <mxCell id="_edwEU55tXUdFOv5jaIl-27" style="edgeStyle=orthogonalEdgeStyle;rounded=0;orthogonalLoop=1;jettySize=auto;html=1;exitX=1;exitY=0.5;exitDx=0;exitDy=0;entryX=0;entryY=0.5;entryDx=0;entryDy=0;" parent="1" source="_edwEU55tXUdFOv5jaIl-3" target="_edwEU55tXUdFOv5jaIl-9" edge="1">
          <mxGeometry relative="1" as="geometry" />
        </mxCell>
        <mxCell id="_edwEU55tXUdFOv5jaIl-3" value="&lt;div&gt;Is there any&lt;/div&gt;&lt;div&gt;&lt;u&gt;&lt;b&gt;PENDING &lt;/b&gt;&lt;/u&gt;Pod?&lt;br&gt;&lt;/div&gt;" style="rhombus;html=1;spacingLeft=0;align=right;fillColor=#fff2cc;strokeColor=#d6b656;labelPosition=left;verticalLabelPosition=middle;verticalAlign=middle;spacingRight=10;" parent="1" vertex="1">
          <mxGeometry x="-920" y="260" width="40" height="40" as="geometry" />
        </mxCell>
        <mxCell id="_edwEU55tXUdFOv5jaIl-13" style="edgeStyle=orthogonalEdgeStyle;rounded=0;orthogonalLoop=1;jettySize=auto;html=1;exitX=0.5;exitY=1;exitDx=0;exitDy=0;entryX=0.5;entryY=0;entryDx=0;entryDy=0;" parent="1" source="_edwEU55tXUdFOv5jaIl-8" target="_edwEU55tXUdFOv5jaIl-12" edge="1">
          <mxGeometry relative="1" as="geometry" />
        </mxCell>
        <mxCell id="_edwEU55tXUdFOv5jaIl-8" value="No" style="rounded=1;whiteSpace=wrap;html=1;" parent="1" vertex="1">
          <mxGeometry x="-920" y="340" width="40" height="20" as="geometry" />
        </mxCell>
        <mxCell id="_edwEU55tXUdFOv5jaIl-28" style="edgeStyle=orthogonalEdgeStyle;rounded=0;orthogonalLoop=1;jettySize=auto;html=1;exitX=0.5;exitY=0;exitDx=0;exitDy=0;entryX=0;entryY=0.5;entryDx=0;entryDy=0;" parent="1" source="_edwEU55tXUdFOv5jaIl-9" target="_edwEU55tXUdFOv5jaIl-25" edge="1">
          <mxGeometry relative="1" as="geometry" />
        </mxCell>
        <mxCell id="_edwEU55tXUdFOv5jaIl-9" value="Yes" style="rounded=1;whiteSpace=wrap;html=1;" parent="1" vertex="1">
          <mxGeometry x="-840" y="270" width="40" height="20" as="geometry" />
        </mxCell>
        <mxCell id="_edwEU55tXUdFOv5jaIl-17" style="edgeStyle=orthogonalEdgeStyle;rounded=0;orthogonalLoop=1;jettySize=auto;html=1;exitX=0.5;exitY=1;exitDx=0;exitDy=0;entryX=0.5;entryY=0;entryDx=0;entryDy=0;" parent="1" source="_edwEU55tXUdFOv5jaIl-12" target="_edwEU55tXUdFOv5jaIl-16" edge="1">
          <mxGeometry relative="1" as="geometry" />
        </mxCell>
        <mxCell id="_edwEU55tXUdFOv5jaIl-71" style="edgeStyle=orthogonalEdgeStyle;rounded=0;orthogonalLoop=1;jettySize=auto;html=1;exitX=1;exitY=0.5;exitDx=0;exitDy=0;" parent="1" source="_edwEU55tXUdFOv5jaIl-12" target="_edwEU55tXUdFOv5jaIl-70" edge="1">
          <mxGeometry relative="1" as="geometry" />
        </mxCell>
        <mxCell id="_edwEU55tXUdFOv5jaIl-12" value="&lt;div&gt;Are the Pods&lt;br&gt;&lt;/div&gt;&lt;div&gt;&lt;u&gt;&lt;b&gt;RUNNING&lt;/b&gt;&lt;/u&gt;?&lt;br&gt;&lt;/div&gt;" style="rhombus;html=1;spacingLeft=0;align=right;fillColor=#fff2cc;strokeColor=#d6b656;labelPosition=left;verticalLabelPosition=middle;verticalAlign=middle;spacingRight=10;" parent="1" vertex="1">
          <mxGeometry x="-920" y="460" width="40" height="40" as="geometry" />
        </mxCell>
        <mxCell id="_edwEU55tXUdFOv5jaIl-21" style="edgeStyle=orthogonalEdgeStyle;rounded=0;orthogonalLoop=1;jettySize=auto;html=1;exitX=0.5;exitY=1;exitDx=0;exitDy=0;entryX=0.5;entryY=0;entryDx=0;entryDy=0;" parent="1" source="_edwEU55tXUdFOv5jaIl-14" target="_edwEU55tXUdFOv5jaIl-19" edge="1">
          <mxGeometry relative="1" as="geometry" />
        </mxCell>
        <mxCell id="_edwEU55tXUdFOv5jaIl-201" style="edgeStyle=orthogonalEdgeStyle;rounded=0;orthogonalLoop=1;jettySize=auto;html=1;exitX=1;exitY=0.5;exitDx=0;exitDy=0;entryX=0;entryY=0.5;entryDx=0;entryDy=0;" parent="1" source="_edwEU55tXUdFOv5jaIl-14" target="_edwEU55tXUdFOv5jaIl-200" edge="1">
          <mxGeometry relative="1" as="geometry" />
        </mxCell>
        <mxCell id="_edwEU55tXUdFOv5jaIl-14" value="&lt;div&gt;Are the Pods&lt;br&gt;&lt;/div&gt;&lt;div&gt;&lt;u&gt;&lt;b&gt;READY&lt;/b&gt;&lt;/u&gt;?&lt;br&gt;&lt;/div&gt;" style="rhombus;html=1;spacingLeft=0;align=right;fillColor=#fff2cc;strokeColor=#d6b656;labelPosition=left;verticalLabelPosition=middle;verticalAlign=middle;spacingRight=10;" parent="1" vertex="1">
          <mxGeometry x="-920" y="820" width="40" height="40" as="geometry" />
        </mxCell>
        <mxCell id="_edwEU55tXUdFOv5jaIl-18" style="edgeStyle=orthogonalEdgeStyle;rounded=0;orthogonalLoop=1;jettySize=auto;html=1;exitX=0.5;exitY=1;exitDx=0;exitDy=0;entryX=0.5;entryY=0;entryDx=0;entryDy=0;" parent="1" source="_edwEU55tXUdFOv5jaIl-16" target="_edwEU55tXUdFOv5jaIl-14" edge="1">
          <mxGeometry relative="1" as="geometry" />
        </mxCell>
        <mxCell id="_edwEU55tXUdFOv5jaIl-16" value="Yes" style="rounded=1;whiteSpace=wrap;html=1;" parent="1" vertex="1">
          <mxGeometry x="-920" y="540" width="40" height="20" as="geometry" />
        </mxCell>
        <mxCell id="_edwEU55tXUdFOv5jaIl-24" style="edgeStyle=orthogonalEdgeStyle;rounded=0;orthogonalLoop=1;jettySize=auto;html=1;exitX=0.5;exitY=1;exitDx=0;exitDy=0;entryX=0.5;entryY=0;entryDx=0;entryDy=0;" parent="1" source="_edwEU55tXUdFOv5jaIl-19" target="_edwEU55tXUdFOv5jaIl-22" edge="1">
          <mxGeometry relative="1" as="geometry" />
        </mxCell>
        <mxCell id="_edwEU55tXUdFOv5jaIl-19" value="Yes" style="rounded=1;whiteSpace=wrap;html=1;" parent="1" vertex="1">
          <mxGeometry x="-920" y="900" width="40" height="20" as="geometry" />
        </mxCell>
        <mxCell id="_edwEU55tXUdFOv5jaIl-220" style="edgeStyle=orthogonalEdgeStyle;rounded=0;orthogonalLoop=1;jettySize=auto;html=1;exitX=0.5;exitY=1;exitDx=0;exitDy=0;" parent="1" source="_edwEU55tXUdFOv5jaIl-22" target="_edwEU55tXUdFOv5jaIl-217" edge="1">
          <mxGeometry relative="1" as="geometry" />
        </mxCell>
        <mxCell id="_edwEU55tXUdFOv5jaIl-22" value="&lt;div&gt;$ kubectl port-forward &amp;lt;pod-name&amp;gt;&lt;br&gt;8080:&amp;lt;pod-port&amp;gt;&lt;br&gt;&lt;/div&gt;" style="rounded=1;whiteSpace=wrap;html=1;fillColor=#647687;strokeColor=#314354;fontColor=#ffffff;" parent="1" vertex="1">
          <mxGeometry x="-1000" y="1000" width="200" height="40" as="geometry" />
        </mxCell>
        <mxCell id="_edwEU55tXUdFOv5jaIl-30" style="edgeStyle=orthogonalEdgeStyle;rounded=0;orthogonalLoop=1;jettySize=auto;html=1;exitX=0.5;exitY=1;exitDx=0;exitDy=0;entryX=0.5;entryY=0;entryDx=0;entryDy=0;" parent="1" source="_edwEU55tXUdFOv5jaIl-25" target="_edwEU55tXUdFOv5jaIl-29" edge="1">
          <mxGeometry relative="1" as="geometry" />
        </mxCell>
        <mxCell id="_edwEU55tXUdFOv5jaIl-25" value="&lt;div&gt;$ kubectl describe pod &amp;lt;pod-name&amp;gt;&lt;br&gt;&lt;/div&gt;" style="rounded=1;whiteSpace=wrap;html=1;fillColor=#647687;fontColor=#ffffff;strokeColor=#314354;" parent="1" vertex="1">
          <mxGeometry x="-760" y="180" width="200" height="40" as="geometry" />
        </mxCell>
        <mxCell id="_edwEU55tXUdFOv5jaIl-34" style="edgeStyle=orthogonalEdgeStyle;rounded=0;orthogonalLoop=1;jettySize=auto;html=1;exitX=0.5;exitY=1;exitDx=0;exitDy=0;entryX=0.5;entryY=0;entryDx=0;entryDy=0;" parent="1" source="_edwEU55tXUdFOv5jaIl-29" target="_edwEU55tXUdFOv5jaIl-33" edge="1">
          <mxGeometry relative="1" as="geometry" />
        </mxCell>
        <mxCell id="_edwEU55tXUdFOv5jaIl-37" style="edgeStyle=orthogonalEdgeStyle;rounded=0;orthogonalLoop=1;jettySize=auto;html=1;exitX=1;exitY=0.5;exitDx=0;exitDy=0;entryX=0;entryY=0.5;entryDx=0;entryDy=0;" parent="1" source="_edwEU55tXUdFOv5jaIl-29" target="_edwEU55tXUdFOv5jaIl-36" edge="1">
          <mxGeometry relative="1" as="geometry" />
        </mxCell>
        <mxCell id="_edwEU55tXUdFOv5jaIl-29" value="&lt;div&gt;Is the cluster full?&lt;br&gt;&lt;/div&gt;" style="rhombus;whiteSpace=wrap;html=1;spacingLeft=0;align=right;fillColor=#fff2cc;strokeColor=#d6b656;labelPosition=left;verticalLabelPosition=middle;verticalAlign=middle;spacingRight=10;" parent="1" vertex="1">
          <mxGeometry x="-680" y="260" width="40" height="40" as="geometry" />
        </mxCell>
        <mxCell id="_edwEU55tXUdFOv5jaIl-31" value="Provision a bigger cluster" style="rounded=0;whiteSpace=wrap;html=1;fillColor=#dae8fc;strokeColor=#6c8ebf;" parent="1" vertex="1">
          <mxGeometry x="-720" y="360" width="120" height="40" as="geometry" />
        </mxCell>
        <mxCell id="_edwEU55tXUdFOv5jaIl-32" style="edgeStyle=orthogonalEdgeStyle;rounded=0;orthogonalLoop=1;jettySize=auto;html=1;exitX=0.5;exitY=1;exitDx=0;exitDy=0;" parent="1" source="_edwEU55tXUdFOv5jaIl-31" target="_edwEU55tXUdFOv5jaIl-31" edge="1">
          <mxGeometry relative="1" as="geometry" />
        </mxCell>
        <mxCell id="_edwEU55tXUdFOv5jaIl-35" style="edgeStyle=orthogonalEdgeStyle;rounded=0;orthogonalLoop=1;jettySize=auto;html=1;exitX=0.5;exitY=1;exitDx=0;exitDy=0;entryX=0.5;entryY=0;entryDx=0;entryDy=0;" parent="1" source="_edwEU55tXUdFOv5jaIl-33" target="_edwEU55tXUdFOv5jaIl-31" edge="1">
          <mxGeometry relative="1" as="geometry" />
        </mxCell>
        <mxCell id="_edwEU55tXUdFOv5jaIl-33" value="Yes" style="rounded=1;whiteSpace=wrap;html=1;" parent="1" vertex="1">
          <mxGeometry x="-680" y="320" width="40" height="20" as="geometry" />
        </mxCell>
        <mxCell id="_edwEU55tXUdFOv5jaIl-39" style="edgeStyle=orthogonalEdgeStyle;rounded=0;orthogonalLoop=1;jettySize=auto;html=1;exitX=1;exitY=0.5;exitDx=0;exitDy=0;entryX=0;entryY=0.5;entryDx=0;entryDy=0;" parent="1" source="_edwEU55tXUdFOv5jaIl-36" target="_edwEU55tXUdFOv5jaIl-46" edge="1">
          <mxGeometry relative="1" as="geometry">
            <mxPoint x="-390" y="300" as="targetPoint" />
          </mxGeometry>
        </mxCell>
        <mxCell id="_edwEU55tXUdFOv5jaIl-36" value="No" style="rounded=1;whiteSpace=wrap;html=1;" parent="1" vertex="1">
          <mxGeometry x="-600" y="270" width="40" height="20" as="geometry" />
        </mxCell>
        <mxCell id="_edwEU55tXUdFOv5jaIl-42" style="edgeStyle=orthogonalEdgeStyle;rounded=0;orthogonalLoop=1;jettySize=auto;html=1;exitX=0.5;exitY=1;exitDx=0;exitDy=0;entryX=0.5;entryY=0;entryDx=0;entryDy=0;" parent="1" source="_edwEU55tXUdFOv5jaIl-38" target="_edwEU55tXUdFOv5jaIl-41" edge="1">
          <mxGeometry relative="1" as="geometry" />
        </mxCell>
        <mxCell id="_edwEU55tXUdFOv5jaIl-45" style="edgeStyle=orthogonalEdgeStyle;rounded=0;orthogonalLoop=1;jettySize=auto;html=1;exitX=1;exitY=0.5;exitDx=0;exitDy=0;" parent="1" source="_edwEU55tXUdFOv5jaIl-38" target="_edwEU55tXUdFOv5jaIl-44" edge="1">
          <mxGeometry relative="1" as="geometry" />
        </mxCell>
        <mxCell id="_edwEU55tXUdFOv5jaIl-38" value="Are you hitting the&lt;br&gt;ResourceQuota limits" style="rhombus;html=1;spacingLeft=0;align=center;fillColor=#fff2cc;strokeColor=#d6b656;spacingTop=0;spacingRight=0;spacingBottom=10;labelPosition=center;verticalLabelPosition=top;verticalAlign=bottom;" parent="1" vertex="1">
          <mxGeometry x="-320" y="80" width="40" height="40" as="geometry" />
        </mxCell>
        <mxCell id="_edwEU55tXUdFOv5jaIl-40" value="Relax the ResourceQuota limits" style="rounded=0;whiteSpace=wrap;html=1;fillColor=#dae8fc;strokeColor=#6c8ebf;" parent="1" vertex="1">
          <mxGeometry x="-520" y="130" width="120" height="40" as="geometry" />
        </mxCell>
        <mxCell id="_edwEU55tXUdFOv5jaIl-43" style="edgeStyle=orthogonalEdgeStyle;rounded=0;orthogonalLoop=1;jettySize=auto;html=1;exitX=0;exitY=0.5;exitDx=0;exitDy=0;entryX=1;entryY=0.5;entryDx=0;entryDy=0;" parent="1" source="_edwEU55tXUdFOv5jaIl-41" target="_edwEU55tXUdFOv5jaIl-40" edge="1">
          <mxGeometry relative="1" as="geometry" />
        </mxCell>
        <mxCell id="_edwEU55tXUdFOv5jaIl-41" value="Yes" style="rounded=1;whiteSpace=wrap;html=1;" parent="1" vertex="1">
          <mxGeometry x="-320" y="140" width="40" height="20" as="geometry" />
        </mxCell>
        <mxCell id="_edwEU55tXUdFOv5jaIl-259" style="edgeStyle=orthogonalEdgeStyle;rounded=0;orthogonalLoop=1;jettySize=auto;html=1;exitX=1;exitY=0.5;exitDx=0;exitDy=0;entryX=0;entryY=0.5;entryDx=0;entryDy=0;fontSize=16;" parent="1" source="_edwEU55tXUdFOv5jaIl-44" target="_edwEU55tXUdFOv5jaIl-258" edge="1">
          <mxGeometry relative="1" as="geometry" />
        </mxCell>
        <mxCell id="_edwEU55tXUdFOv5jaIl-44" value="No" style="rounded=1;whiteSpace=wrap;html=1;" parent="1" vertex="1">
          <mxGeometry x="-240" y="90" width="40" height="20" as="geometry" />
        </mxCell>
        <mxCell id="_edwEU55tXUdFOv5jaIl-49" style="edgeStyle=orthogonalEdgeStyle;rounded=0;orthogonalLoop=1;jettySize=auto;html=1;exitX=0.5;exitY=1;exitDx=0;exitDy=0;entryX=0.5;entryY=0;entryDx=0;entryDy=0;" parent="1" source="_edwEU55tXUdFOv5jaIl-46" target="_edwEU55tXUdFOv5jaIl-48" edge="1">
          <mxGeometry relative="1" as="geometry" />
        </mxCell>
        <mxCell id="_edwEU55tXUdFOv5jaIl-54" style="edgeStyle=orthogonalEdgeStyle;rounded=0;orthogonalLoop=1;jettySize=auto;html=1;exitX=1;exitY=0.5;exitDx=0;exitDy=0;entryX=0;entryY=0.5;entryDx=0;entryDy=0;" parent="1" source="_edwEU55tXUdFOv5jaIl-46" target="_edwEU55tXUdFOv5jaIl-53" edge="1">
          <mxGeometry relative="1" as="geometry" />
        </mxCell>
        <mxCell id="_edwEU55tXUdFOv5jaIl-46" value="Are you mounting a PENDING PersistentVolumeClaim" style="rhombus;whiteSpace=wrap;html=1;spacingLeft=0;align=center;fillColor=#fff2cc;strokeColor=#d6b656;spacingTop=0;spacingRight=0;spacingBottom=10;labelPosition=center;verticalLabelPosition=top;verticalAlign=bottom;" parent="1" vertex="1">
          <mxGeometry x="-500" y="260" width="40" height="40" as="geometry" />
        </mxCell>
        <mxCell id="_edwEU55tXUdFOv5jaIl-52" style="edgeStyle=orthogonalEdgeStyle;rounded=0;orthogonalLoop=1;jettySize=auto;html=1;exitX=0.5;exitY=1;exitDx=0;exitDy=0;entryX=0.5;entryY=0;entryDx=0;entryDy=0;" parent="1" source="_edwEU55tXUdFOv5jaIl-48" target="_edwEU55tXUdFOv5jaIl-50" edge="1">
          <mxGeometry relative="1" as="geometry" />
        </mxCell>
        <mxCell id="_edwEU55tXUdFOv5jaIl-48" value="Yes" style="rounded=1;whiteSpace=wrap;html=1;" parent="1" vertex="1">
          <mxGeometry x="-500" y="320" width="40" height="20" as="geometry" />
        </mxCell>
        <mxCell id="_edwEU55tXUdFOv5jaIl-50" value="Fix the PersistentVolumeClaim" style="rounded=0;whiteSpace=wrap;html=1;fillColor=#dae8fc;strokeColor=#6c8ebf;" parent="1" vertex="1">
          <mxGeometry x="-560" y="360" width="160" height="40" as="geometry" />
        </mxCell>
        <mxCell id="_edwEU55tXUdFOv5jaIl-56" style="edgeStyle=orthogonalEdgeStyle;rounded=0;orthogonalLoop=1;jettySize=auto;html=1;exitX=0.5;exitY=0;exitDx=0;exitDy=0;entryX=0;entryY=0.5;entryDx=0;entryDy=0;" parent="1" source="_edwEU55tXUdFOv5jaIl-53" target="_edwEU55tXUdFOv5jaIl-55" edge="1">
          <mxGeometry relative="1" as="geometry" />
        </mxCell>
        <mxCell id="_edwEU55tXUdFOv5jaIl-53" value="No" style="rounded=1;whiteSpace=wrap;html=1;" parent="1" vertex="1">
          <mxGeometry x="-420" y="270" width="40" height="20" as="geometry" />
        </mxCell>
        <mxCell id="_edwEU55tXUdFOv5jaIl-60" style="edgeStyle=orthogonalEdgeStyle;rounded=0;orthogonalLoop=1;jettySize=auto;html=1;exitX=0.5;exitY=1;exitDx=0;exitDy=0;" parent="1" source="_edwEU55tXUdFOv5jaIl-55" target="_edwEU55tXUdFOv5jaIl-57" edge="1">
          <mxGeometry relative="1" as="geometry" />
        </mxCell>
        <mxCell id="_edwEU55tXUdFOv5jaIl-55" value="&lt;div&gt;$ kubectl get pods -o wide&lt;br&gt;&lt;/div&gt;" style="rounded=1;whiteSpace=wrap;html=1;fillColor=#647687;fontColor=#ffffff;strokeColor=#314354;" parent="1" vertex="1">
          <mxGeometry x="-360" y="200" width="160" height="40" as="geometry" />
        </mxCell>
        <mxCell id="_edwEU55tXUdFOv5jaIl-64" style="edgeStyle=orthogonalEdgeStyle;rounded=0;orthogonalLoop=1;jettySize=auto;html=1;exitX=0.5;exitY=1;exitDx=0;exitDy=0;entryX=0.5;entryY=0;entryDx=0;entryDy=0;" parent="1" source="_edwEU55tXUdFOv5jaIl-57" target="_edwEU55tXUdFOv5jaIl-62" edge="1">
          <mxGeometry relative="1" as="geometry" />
        </mxCell>
        <mxCell id="_edwEU55tXUdFOv5jaIl-66" style="edgeStyle=orthogonalEdgeStyle;rounded=0;orthogonalLoop=1;jettySize=auto;html=1;exitX=1;exitY=0.5;exitDx=0;exitDy=0;" parent="1" source="_edwEU55tXUdFOv5jaIl-57" target="_edwEU55tXUdFOv5jaIl-61" edge="1">
          <mxGeometry relative="1" as="geometry" />
        </mxCell>
        <mxCell id="_edwEU55tXUdFOv5jaIl-57" value="Is the Pod&lt;br&gt;assigned&lt;br&gt;to a Node" style="rhombus;html=1;spacingLeft=0;align=right;fillColor=#fff2cc;strokeColor=#d6b656;spacingTop=0;spacingRight=10;spacingBottom=0;labelPosition=left;verticalLabelPosition=middle;verticalAlign=middle;" parent="1" vertex="1">
          <mxGeometry x="-300" y="280" width="40" height="40" as="geometry" />
        </mxCell>
        <mxCell id="_edwEU55tXUdFOv5jaIl-68" style="edgeStyle=orthogonalEdgeStyle;rounded=0;orthogonalLoop=1;jettySize=auto;html=1;exitX=1;exitY=0.5;exitDx=0;exitDy=0;entryX=0;entryY=0.5;entryDx=0;entryDy=0;" parent="1" source="_edwEU55tXUdFOv5jaIl-61" target="_edwEU55tXUdFOv5jaIl-67" edge="1">
          <mxGeometry relative="1" as="geometry" />
        </mxCell>
        <mxCell id="_edwEU55tXUdFOv5jaIl-61" value="Yes" style="rounded=1;whiteSpace=wrap;html=1;" parent="1" vertex="1">
          <mxGeometry x="-240" y="290" width="40" height="20" as="geometry" />
        </mxCell>
        <mxCell id="_edwEU55tXUdFOv5jaIl-65" style="edgeStyle=orthogonalEdgeStyle;rounded=0;orthogonalLoop=1;jettySize=auto;html=1;exitX=0.5;exitY=1;exitDx=0;exitDy=0;entryX=0.5;entryY=0;entryDx=0;entryDy=0;" parent="1" source="_edwEU55tXUdFOv5jaIl-62" target="_edwEU55tXUdFOv5jaIl-63" edge="1">
          <mxGeometry relative="1" as="geometry" />
        </mxCell>
        <mxCell id="_edwEU55tXUdFOv5jaIl-62" value="No" style="rounded=1;whiteSpace=wrap;html=1;" parent="1" vertex="1">
          <mxGeometry x="-300" y="340" width="40" height="20" as="geometry" />
        </mxCell>
        <mxCell id="_edwEU55tXUdFOv5jaIl-63" value="There is an issue&lt;br&gt;with the Scheduler" style="rounded=0;whiteSpace=wrap;html=1;fillColor=#ffe6cc;strokeColor=#d79b00;" parent="1" vertex="1">
          <mxGeometry x="-340" y="380" width="120" height="40" as="geometry" />
        </mxCell>
        <mxCell id="_edwEU55tXUdFOv5jaIl-67" value="There is an issue&lt;br&gt;with the Kubelet" style="rounded=0;whiteSpace=wrap;html=1;fillColor=#ffe6cc;strokeColor=#d79b00;" parent="1" vertex="1">
          <mxGeometry x="-160" y="270" width="120" height="60" as="geometry" />
        </mxCell>
        <mxCell id="_edwEU55tXUdFOv5jaIl-79" style="edgeStyle=orthogonalEdgeStyle;rounded=0;orthogonalLoop=1;jettySize=auto;html=1;exitX=0.5;exitY=1;exitDx=0;exitDy=0;entryX=0.5;entryY=0;entryDx=0;entryDy=0;" parent="1" source="_edwEU55tXUdFOv5jaIl-69" target="_edwEU55tXUdFOv5jaIl-75" edge="1">
          <mxGeometry relative="1" as="geometry" />
        </mxCell>
        <mxCell id="_edwEU55tXUdFOv5jaIl-69" value="&lt;div&gt;$ kubectl logs &amp;lt;pod-name&amp;gt;&lt;br&gt;&lt;/div&gt;" style="rounded=1;whiteSpace=wrap;html=1;fillColor=#647687;strokeColor=#314354;fontColor=#ffffff;" parent="1" vertex="1">
          <mxGeometry x="-760" y="460" width="160" height="40" as="geometry" />
        </mxCell>
        <mxCell id="_edwEU55tXUdFOv5jaIl-72" style="edgeStyle=orthogonalEdgeStyle;rounded=0;orthogonalLoop=1;jettySize=auto;html=1;exitX=1;exitY=0.5;exitDx=0;exitDy=0;" parent="1" source="_edwEU55tXUdFOv5jaIl-70" target="_edwEU55tXUdFOv5jaIl-69" edge="1">
          <mxGeometry relative="1" as="geometry" />
        </mxCell>
        <mxCell id="_edwEU55tXUdFOv5jaIl-70" value="No" style="rounded=1;whiteSpace=wrap;html=1;" parent="1" vertex="1">
          <mxGeometry x="-840" y="470" width="40" height="20" as="geometry" />
        </mxCell>
        <mxCell id="_edwEU55tXUdFOv5jaIl-82" style="edgeStyle=orthogonalEdgeStyle;rounded=0;orthogonalLoop=1;jettySize=auto;html=1;exitX=0.5;exitY=1;exitDx=0;exitDy=0;entryX=0.5;entryY=0;entryDx=0;entryDy=0;" parent="1" source="_edwEU55tXUdFOv5jaIl-73" target="_edwEU55tXUdFOv5jaIl-76" edge="1">
          <mxGeometry relative="1" as="geometry" />
        </mxCell>
        <mxCell id="_edwEU55tXUdFOv5jaIl-89" style="edgeStyle=orthogonalEdgeStyle;rounded=0;orthogonalLoop=1;jettySize=auto;html=1;exitX=1;exitY=0.5;exitDx=0;exitDy=0;" parent="1" source="_edwEU55tXUdFOv5jaIl-73" target="_edwEU55tXUdFOv5jaIl-86" edge="1">
          <mxGeometry relative="1" as="geometry" />
        </mxCell>
        <mxCell id="_edwEU55tXUdFOv5jaIl-73" value="Can you see the&lt;br&gt;logs for the app?" style="rhombus;html=1;spacingLeft=0;align=right;fillColor=#fff2cc;strokeColor=#d6b656;labelPosition=left;verticalLabelPosition=middle;verticalAlign=middle;spacingRight=10;" parent="1" vertex="1">
          <mxGeometry x="-700" y="640" width="40" height="40" as="geometry" />
        </mxCell>
        <mxCell id="_edwEU55tXUdFOv5jaIl-81" style="edgeStyle=orthogonalEdgeStyle;rounded=0;orthogonalLoop=1;jettySize=auto;html=1;exitX=0.5;exitY=1;exitDx=0;exitDy=0;entryX=0.5;entryY=0;entryDx=0;entryDy=0;" parent="1" source="_edwEU55tXUdFOv5jaIl-74" target="_edwEU55tXUdFOv5jaIl-73" edge="1">
          <mxGeometry relative="1" as="geometry" />
        </mxCell>
        <mxCell id="_edwEU55tXUdFOv5jaIl-74" value="No" style="rounded=1;whiteSpace=wrap;html=1;" parent="1" vertex="1">
          <mxGeometry x="-700" y="600" width="40" height="20" as="geometry" />
        </mxCell>
        <mxCell id="_edwEU55tXUdFOv5jaIl-80" style="edgeStyle=orthogonalEdgeStyle;rounded=0;orthogonalLoop=1;jettySize=auto;html=1;exitX=0.5;exitY=1;exitDx=0;exitDy=0;entryX=0.5;entryY=0;entryDx=0;entryDy=0;" parent="1" source="_edwEU55tXUdFOv5jaIl-75" target="_edwEU55tXUdFOv5jaIl-74" edge="1">
          <mxGeometry relative="1" as="geometry" />
        </mxCell>
        <mxCell id="_edwEU55tXUdFOv5jaIl-87" style="edgeStyle=orthogonalEdgeStyle;rounded=0;orthogonalLoop=1;jettySize=auto;html=1;exitX=1;exitY=0.5;exitDx=0;exitDy=0;entryX=0;entryY=0.5;entryDx=0;entryDy=0;" parent="1" source="_edwEU55tXUdFOv5jaIl-75" target="_edwEU55tXUdFOv5jaIl-85" edge="1">
          <mxGeometry relative="1" as="geometry" />
        </mxCell>
        <mxCell id="_edwEU55tXUdFOv5jaIl-75" value="Can you see the&lt;br&gt;logs for the app?" style="rhombus;html=1;spacingLeft=0;align=right;fillColor=#fff2cc;strokeColor=#d6b656;labelPosition=left;verticalLabelPosition=middle;verticalAlign=middle;spacingRight=10;" parent="1" vertex="1">
          <mxGeometry x="-700" y="540" width="40" height="40" as="geometry" />
        </mxCell>
        <mxCell id="_edwEU55tXUdFOv5jaIl-83" style="edgeStyle=orthogonalEdgeStyle;rounded=0;orthogonalLoop=1;jettySize=auto;html=1;exitX=0;exitY=0.5;exitDx=0;exitDy=0;entryX=0.5;entryY=0;entryDx=0;entryDy=0;" parent="1" source="_edwEU55tXUdFOv5jaIl-76" target="_edwEU55tXUdFOv5jaIl-77" edge="1">
          <mxGeometry relative="1" as="geometry" />
        </mxCell>
        <mxCell id="_edwEU55tXUdFOv5jaIl-76" value="Yes" style="rounded=1;whiteSpace=wrap;html=1;" parent="1" vertex="1">
          <mxGeometry x="-700" y="700" width="40" height="20" as="geometry" />
        </mxCell>
        <mxCell id="_edwEU55tXUdFOv5jaIl-78" style="edgeStyle=orthogonalEdgeStyle;rounded=0;orthogonalLoop=1;jettySize=auto;html=1;exitX=0;exitY=0.5;exitDx=0;exitDy=0;" parent="1" source="_edwEU55tXUdFOv5jaIl-77" edge="1">
          <mxGeometry relative="1" as="geometry">
            <mxPoint x="-680" y="520" as="targetPoint" />
            <Array as="points">
              <mxPoint x="-860" y="760" />
              <mxPoint x="-860" y="520" />
            </Array>
          </mxGeometry>
        </mxCell>
        <mxCell id="_edwEU55tXUdFOv5jaIl-77" value="&lt;div&gt;$ kubectl logs &amp;lt;pod-name&amp;gt; --previous&lt;/div&gt;" style="rounded=1;whiteSpace=wrap;html=1;fillColor=#647687;strokeColor=#314354;fontColor=#ffffff;" parent="1" vertex="1">
          <mxGeometry x="-840" y="740" width="240" height="40" as="geometry" />
        </mxCell>
        <mxCell id="_edwEU55tXUdFOv5jaIl-84" value="Fix the issue in&lt;br&gt;the application" style="rounded=0;whiteSpace=wrap;html=1;fillColor=#dae8fc;strokeColor=#6c8ebf;" parent="1" vertex="1">
          <mxGeometry x="-560" y="540" width="120" height="40" as="geometry" />
        </mxCell>
        <mxCell id="_edwEU55tXUdFOv5jaIl-88" style="edgeStyle=orthogonalEdgeStyle;rounded=0;orthogonalLoop=1;jettySize=auto;html=1;exitX=1;exitY=0.5;exitDx=0;exitDy=0;entryX=0;entryY=0.5;entryDx=0;entryDy=0;" parent="1" source="_edwEU55tXUdFOv5jaIl-85" target="_edwEU55tXUdFOv5jaIl-84" edge="1">
          <mxGeometry relative="1" as="geometry" />
        </mxCell>
        <mxCell id="_edwEU55tXUdFOv5jaIl-85" value="Yes" style="rounded=1;whiteSpace=wrap;html=1;" parent="1" vertex="1">
          <mxGeometry x="-640" y="550" width="40" height="20" as="geometry" />
        </mxCell>
        <mxCell id="_edwEU55tXUdFOv5jaIl-92" style="edgeStyle=orthogonalEdgeStyle;rounded=0;orthogonalLoop=1;jettySize=auto;html=1;exitX=1;exitY=0.5;exitDx=0;exitDy=0;entryX=0;entryY=0.5;entryDx=0;entryDy=0;" parent="1" source="_edwEU55tXUdFOv5jaIl-86" target="_edwEU55tXUdFOv5jaIl-91" edge="1">
          <mxGeometry relative="1" as="geometry">
            <Array as="points">
              <mxPoint x="-420" y="660" />
              <mxPoint x="-420" y="480" />
            </Array>
          </mxGeometry>
        </mxCell>
        <mxCell id="_edwEU55tXUdFOv5jaIl-86" value="No" style="rounded=1;whiteSpace=wrap;html=1;" parent="1" vertex="1">
          <mxGeometry x="-640" y="650" width="40" height="20" as="geometry" />
        </mxCell>
        <mxCell id="_edwEU55tXUdFOv5jaIl-94" style="edgeStyle=orthogonalEdgeStyle;rounded=0;orthogonalLoop=1;jettySize=auto;html=1;exitX=0.75;exitY=1;exitDx=0;exitDy=0;entryX=0.5;entryY=0;entryDx=0;entryDy=0;" parent="1" source="_edwEU55tXUdFOv5jaIl-91" target="_edwEU55tXUdFOv5jaIl-93" edge="1">
          <mxGeometry relative="1" as="geometry" />
        </mxCell>
        <mxCell id="_edwEU55tXUdFOv5jaIl-91" value="&lt;div&gt;$ kubectl describe pod &amp;lt;pod-name&amp;gt;&lt;br&gt;&lt;/div&gt;" style="rounded=1;whiteSpace=wrap;html=1;fillColor=#647687;fontColor=#ffffff;strokeColor=#314354;" parent="1" vertex="1">
          <mxGeometry x="-400" y="460" width="200" height="40" as="geometry" />
        </mxCell>
        <mxCell id="_edwEU55tXUdFOv5jaIl-98" style="edgeStyle=orthogonalEdgeStyle;rounded=0;orthogonalLoop=1;jettySize=auto;html=1;exitX=0.5;exitY=1;exitDx=0;exitDy=0;entryX=0.5;entryY=0;entryDx=0;entryDy=0;" parent="1" source="_edwEU55tXUdFOv5jaIl-93" target="_edwEU55tXUdFOv5jaIl-95" edge="1">
          <mxGeometry relative="1" as="geometry" />
        </mxCell>
        <mxCell id="_edwEU55tXUdFOv5jaIl-99" style="edgeStyle=orthogonalEdgeStyle;rounded=0;orthogonalLoop=1;jettySize=auto;html=1;exitX=1;exitY=0.5;exitDx=0;exitDy=0;entryX=0;entryY=0.5;entryDx=0;entryDy=0;" parent="1" source="_edwEU55tXUdFOv5jaIl-93" target="_edwEU55tXUdFOv5jaIl-96" edge="1">
          <mxGeometry relative="1" as="geometry" />
        </mxCell>
        <mxCell id="_edwEU55tXUdFOv5jaIl-93" value="Is the Pod status&lt;br&gt;ImagePullBackOff?" style="rhombus;html=1;spacingLeft=0;align=right;fillColor=#fff2cc;strokeColor=#d6b656;labelPosition=left;verticalLabelPosition=middle;verticalAlign=middle;spacingRight=10;" parent="1" vertex="1">
          <mxGeometry x="-270" y="540" width="40" height="40" as="geometry" />
        </mxCell>
        <mxCell id="_edwEU55tXUdFOv5jaIl-106" style="edgeStyle=orthogonalEdgeStyle;rounded=0;orthogonalLoop=1;jettySize=auto;html=1;exitX=0.5;exitY=1;exitDx=0;exitDy=0;entryX=0.5;entryY=0;entryDx=0;entryDy=0;" parent="1" source="_edwEU55tXUdFOv5jaIl-95" target="_edwEU55tXUdFOv5jaIl-103" edge="1">
          <mxGeometry relative="1" as="geometry" />
        </mxCell>
        <mxCell id="_edwEU55tXUdFOv5jaIl-95" value="Yes" style="rounded=1;whiteSpace=wrap;html=1;" parent="1" vertex="1">
          <mxGeometry x="-270" y="600" width="40" height="20" as="geometry" />
        </mxCell>
        <mxCell id="_edwEU55tXUdFOv5jaIl-158" style="edgeStyle=orthogonalEdgeStyle;rounded=0;orthogonalLoop=1;jettySize=auto;html=1;exitX=1;exitY=0.5;exitDx=0;exitDy=0;entryX=0.5;entryY=0;entryDx=0;entryDy=0;" parent="1" source="_edwEU55tXUdFOv5jaIl-96" target="_edwEU55tXUdFOv5jaIl-135" edge="1">
          <mxGeometry relative="1" as="geometry">
            <Array as="points">
              <mxPoint x="-150" y="560" />
              <mxPoint x="-150" y="620" />
              <mxPoint x="160" y="620" />
            </Array>
          </mxGeometry>
        </mxCell>
        <mxCell id="_edwEU55tXUdFOv5jaIl-96" value="No" style="rounded=1;whiteSpace=wrap;html=1;" parent="1" vertex="1">
          <mxGeometry x="-210" y="550" width="40" height="20" as="geometry" />
        </mxCell>
        <mxCell id="_edwEU55tXUdFOv5jaIl-101" style="edgeStyle=orthogonalEdgeStyle;rounded=0;orthogonalLoop=1;jettySize=auto;html=1;exitX=0.5;exitY=1;exitDx=0;exitDy=0;entryX=0.5;entryY=0;entryDx=0;entryDy=0;" parent="1" source="_edwEU55tXUdFOv5jaIl-103" target="_edwEU55tXUdFOv5jaIl-104" edge="1">
          <mxGeometry relative="1" as="geometry" />
        </mxCell>
        <mxCell id="_edwEU55tXUdFOv5jaIl-102" style="edgeStyle=orthogonalEdgeStyle;rounded=0;orthogonalLoop=1;jettySize=auto;html=1;exitX=1;exitY=0.5;exitDx=0;exitDy=0;entryX=0;entryY=0.5;entryDx=0;entryDy=0;" parent="1" source="_edwEU55tXUdFOv5jaIl-103" target="_edwEU55tXUdFOv5jaIl-105" edge="1">
          <mxGeometry relative="1" as="geometry" />
        </mxCell>
        <mxCell id="_edwEU55tXUdFOv5jaIl-103" value="Is the name of the&lt;br&gt;image correct?" style="rhombus;html=1;spacingLeft=0;align=right;fillColor=#fff2cc;strokeColor=#d6b656;labelPosition=left;verticalLabelPosition=middle;verticalAlign=middle;spacingRight=10;" parent="1" vertex="1">
          <mxGeometry x="-270" y="640" width="40" height="40" as="geometry" />
        </mxCell>
        <mxCell id="_edwEU55tXUdFOv5jaIl-112" style="edgeStyle=orthogonalEdgeStyle;rounded=0;orthogonalLoop=1;jettySize=auto;html=1;exitX=0.5;exitY=1;exitDx=0;exitDy=0;entryX=0.5;entryY=0;entryDx=0;entryDy=0;" parent="1" source="_edwEU55tXUdFOv5jaIl-104" target="_edwEU55tXUdFOv5jaIl-109" edge="1">
          <mxGeometry relative="1" as="geometry" />
        </mxCell>
        <mxCell id="_edwEU55tXUdFOv5jaIl-104" value="Yes" style="rounded=1;whiteSpace=wrap;html=1;" parent="1" vertex="1">
          <mxGeometry x="-270" y="700" width="40" height="20" as="geometry" />
        </mxCell>
        <mxCell id="_edwEU55tXUdFOv5jaIl-125" style="edgeStyle=orthogonalEdgeStyle;rounded=0;orthogonalLoop=1;jettySize=auto;html=1;exitX=1;exitY=0.5;exitDx=0;exitDy=0;entryX=0;entryY=0.5;entryDx=0;entryDy=0;" parent="1" source="_edwEU55tXUdFOv5jaIl-105" target="_edwEU55tXUdFOv5jaIl-120" edge="1">
          <mxGeometry relative="1" as="geometry" />
        </mxCell>
        <mxCell id="_edwEU55tXUdFOv5jaIl-105" value="No" style="rounded=1;whiteSpace=wrap;html=1;" parent="1" vertex="1">
          <mxGeometry x="-210" y="650" width="40" height="20" as="geometry" />
        </mxCell>
        <mxCell id="_edwEU55tXUdFOv5jaIl-107" style="edgeStyle=orthogonalEdgeStyle;rounded=0;orthogonalLoop=1;jettySize=auto;html=1;exitX=0.5;exitY=1;exitDx=0;exitDy=0;entryX=0.5;entryY=0;entryDx=0;entryDy=0;" parent="1" source="_edwEU55tXUdFOv5jaIl-109" target="_edwEU55tXUdFOv5jaIl-110" edge="1">
          <mxGeometry relative="1" as="geometry" />
        </mxCell>
        <mxCell id="_edwEU55tXUdFOv5jaIl-108" style="edgeStyle=orthogonalEdgeStyle;rounded=0;orthogonalLoop=1;jettySize=auto;html=1;exitX=1;exitY=0.5;exitDx=0;exitDy=0;entryX=0;entryY=0.5;entryDx=0;entryDy=0;" parent="1" source="_edwEU55tXUdFOv5jaIl-109" target="_edwEU55tXUdFOv5jaIl-111" edge="1">
          <mxGeometry relative="1" as="geometry" />
        </mxCell>
        <mxCell id="_edwEU55tXUdFOv5jaIl-109" value="Is the image tag valid?&lt;br&gt;Does it exist?" style="rhombus;html=1;spacingLeft=0;align=right;fillColor=#fff2cc;strokeColor=#d6b656;labelPosition=left;verticalLabelPosition=middle;verticalAlign=middle;spacingRight=10;" parent="1" vertex="1">
          <mxGeometry x="-270" y="740" width="40" height="40" as="geometry" />
        </mxCell>
        <mxCell id="_edwEU55tXUdFOv5jaIl-118" style="edgeStyle=orthogonalEdgeStyle;rounded=0;orthogonalLoop=1;jettySize=auto;html=1;exitX=0.5;exitY=1;exitDx=0;exitDy=0;entryX=0.5;entryY=0;entryDx=0;entryDy=0;" parent="1" source="_edwEU55tXUdFOv5jaIl-110" target="_edwEU55tXUdFOv5jaIl-115" edge="1">
          <mxGeometry relative="1" as="geometry" />
        </mxCell>
        <mxCell id="_edwEU55tXUdFOv5jaIl-110" value="Yes" style="rounded=1;whiteSpace=wrap;html=1;" parent="1" vertex="1">
          <mxGeometry x="-270" y="800" width="40" height="20" as="geometry" />
        </mxCell>
        <mxCell id="_edwEU55tXUdFOv5jaIl-124" style="edgeStyle=orthogonalEdgeStyle;rounded=0;orthogonalLoop=1;jettySize=auto;html=1;exitX=1;exitY=0.5;exitDx=0;exitDy=0;" parent="1" source="_edwEU55tXUdFOv5jaIl-111" target="_edwEU55tXUdFOv5jaIl-121" edge="1">
          <mxGeometry relative="1" as="geometry" />
        </mxCell>
        <mxCell id="_edwEU55tXUdFOv5jaIl-111" value="No" style="rounded=1;whiteSpace=wrap;html=1;" parent="1" vertex="1">
          <mxGeometry x="-210" y="750" width="40" height="20" as="geometry" />
        </mxCell>
        <mxCell id="_edwEU55tXUdFOv5jaIl-113" style="edgeStyle=orthogonalEdgeStyle;rounded=0;orthogonalLoop=1;jettySize=auto;html=1;exitX=0.5;exitY=1;exitDx=0;exitDy=0;entryX=0.5;entryY=0;entryDx=0;entryDy=0;" parent="1" source="_edwEU55tXUdFOv5jaIl-115" target="_edwEU55tXUdFOv5jaIl-116" edge="1">
          <mxGeometry relative="1" as="geometry" />
        </mxCell>
        <mxCell id="_edwEU55tXUdFOv5jaIl-114" style="edgeStyle=orthogonalEdgeStyle;rounded=0;orthogonalLoop=1;jettySize=auto;html=1;exitX=1;exitY=0.5;exitDx=0;exitDy=0;entryX=0;entryY=0.5;entryDx=0;entryDy=0;" parent="1" source="_edwEU55tXUdFOv5jaIl-115" target="_edwEU55tXUdFOv5jaIl-117" edge="1">
          <mxGeometry relative="1" as="geometry" />
        </mxCell>
        <mxCell id="_edwEU55tXUdFOv5jaIl-115" value="Are you pulling&lt;br&gt;images from a&lt;br&gt;private registry?" style="rhombus;html=1;spacingLeft=0;align=right;fillColor=#fff2cc;strokeColor=#d6b656;labelPosition=left;verticalLabelPosition=middle;verticalAlign=middle;spacingRight=10;" parent="1" vertex="1">
          <mxGeometry x="-270" y="840" width="40" height="40" as="geometry" />
        </mxCell>
        <mxCell id="_edwEU55tXUdFOv5jaIl-161" style="edgeStyle=orthogonalEdgeStyle;rounded=0;orthogonalLoop=1;jettySize=auto;html=1;exitX=0.5;exitY=1;exitDx=0;exitDy=0;entryX=0.5;entryY=0;entryDx=0;entryDy=0;" parent="1" source="_edwEU55tXUdFOv5jaIl-116" target="_edwEU55tXUdFOv5jaIl-119" edge="1">
          <mxGeometry relative="1" as="geometry" />
        </mxCell>
        <mxCell id="_edwEU55tXUdFOv5jaIl-116" value="No" style="rounded=1;whiteSpace=wrap;html=1;" parent="1" vertex="1">
          <mxGeometry x="-270" y="900" width="40" height="20" as="geometry" />
        </mxCell>
        <mxCell id="_edwEU55tXUdFOv5jaIl-123" style="edgeStyle=orthogonalEdgeStyle;rounded=0;orthogonalLoop=1;jettySize=auto;html=1;exitX=1;exitY=0.5;exitDx=0;exitDy=0;entryX=0;entryY=0.5;entryDx=0;entryDy=0;" parent="1" source="_edwEU55tXUdFOv5jaIl-117" target="_edwEU55tXUdFOv5jaIl-122" edge="1">
          <mxGeometry relative="1" as="geometry" />
        </mxCell>
        <mxCell id="_edwEU55tXUdFOv5jaIl-117" value="Yes" style="rounded=1;whiteSpace=wrap;html=1;" parent="1" vertex="1">
          <mxGeometry x="-210" y="850" width="40" height="20" as="geometry" />
        </mxCell>
        <mxCell id="_edwEU55tXUdFOv5jaIl-119" value="The issue could be with the CRI or Kubelet" style="rounded=0;whiteSpace=wrap;html=1;fillColor=#ffe6cc;strokeColor=#d79b00;" parent="1" vertex="1">
          <mxGeometry x="-320" y="940" width="140" height="40" as="geometry" />
        </mxCell>
        <mxCell id="_edwEU55tXUdFOv5jaIl-120" value="Fix the image name" style="rounded=0;whiteSpace=wrap;html=1;fillColor=#dae8fc;strokeColor=#6c8ebf;" parent="1" vertex="1">
          <mxGeometry x="-140" y="640" width="140" height="40" as="geometry" />
        </mxCell>
        <mxCell id="_edwEU55tXUdFOv5jaIl-121" value="Fix the tag" style="rounded=0;whiteSpace=wrap;html=1;fillColor=#dae8fc;strokeColor=#6c8ebf;" parent="1" vertex="1">
          <mxGeometry x="-140" y="740" width="140" height="40" as="geometry" />
        </mxCell>
        <mxCell id="_edwEU55tXUdFOv5jaIl-122" value="Configure pulling images from a private registry" style="rounded=0;whiteSpace=wrap;html=1;fillColor=#dae8fc;strokeColor=#6c8ebf;" parent="1" vertex="1">
          <mxGeometry x="-140" y="840" width="140" height="40" as="geometry" />
        </mxCell>
        <mxCell id="_edwEU55tXUdFOv5jaIl-133" style="edgeStyle=orthogonalEdgeStyle;rounded=0;orthogonalLoop=1;jettySize=auto;html=1;exitX=0.5;exitY=1;exitDx=0;exitDy=0;entryX=0.5;entryY=0;entryDx=0;entryDy=0;" parent="1" source="_edwEU55tXUdFOv5jaIl-135" target="_edwEU55tXUdFOv5jaIl-136" edge="1">
          <mxGeometry relative="1" as="geometry" />
        </mxCell>
        <mxCell id="_edwEU55tXUdFOv5jaIl-134" style="edgeStyle=orthogonalEdgeStyle;rounded=0;orthogonalLoop=1;jettySize=auto;html=1;exitX=1;exitY=0.5;exitDx=0;exitDy=0;entryX=0;entryY=0.5;entryDx=0;entryDy=0;" parent="1" source="_edwEU55tXUdFOv5jaIl-135" target="_edwEU55tXUdFOv5jaIl-137" edge="1">
          <mxGeometry relative="1" as="geometry" />
        </mxCell>
        <mxCell id="_edwEU55tXUdFOv5jaIl-135" value="Is the Pod status&lt;br&gt;CrashLoopBackOff?" style="rhombus;html=1;spacingLeft=0;align=right;fillColor=#fff2cc;strokeColor=#d6b656;labelPosition=left;verticalLabelPosition=middle;verticalAlign=middle;spacingRight=10;" parent="1" vertex="1">
          <mxGeometry x="140" y="640" width="40" height="40" as="geometry" />
        </mxCell>
        <mxCell id="_edwEU55tXUdFOv5jaIl-153" style="edgeStyle=orthogonalEdgeStyle;rounded=0;orthogonalLoop=1;jettySize=auto;html=1;exitX=0.5;exitY=1;exitDx=0;exitDy=0;entryX=0.5;entryY=0;entryDx=0;entryDy=0;" parent="1" source="_edwEU55tXUdFOv5jaIl-136" target="_edwEU55tXUdFOv5jaIl-140" edge="1">
          <mxGeometry relative="1" as="geometry" />
        </mxCell>
        <mxCell id="_edwEU55tXUdFOv5jaIl-136" value="Yes" style="rounded=1;whiteSpace=wrap;html=1;" parent="1" vertex="1">
          <mxGeometry x="140" y="700" width="40" height="20" as="geometry" />
        </mxCell>
        <mxCell id="_edwEU55tXUdFOv5jaIl-213" style="rounded=0;orthogonalLoop=1;jettySize=auto;html=1;entryX=0.5;entryY=1;entryDx=0;entryDy=0;edgeStyle=orthogonalEdgeStyle;exitX=0.5;exitY=0;exitDx=0;exitDy=0;" parent="1" source="_edwEU55tXUdFOv5jaIl-137" target="_edwEU55tXUdFOv5jaIl-169" edge="1">
          <mxGeometry relative="1" as="geometry">
            <mxPoint x="220" y="640" as="sourcePoint" />
          </mxGeometry>
        </mxCell>
        <mxCell id="_edwEU55tXUdFOv5jaIl-137" value="No" style="rounded=1;whiteSpace=wrap;html=1;" parent="1" vertex="1">
          <mxGeometry x="200" y="650" width="40" height="20" as="geometry" />
        </mxCell>
        <mxCell id="_edwEU55tXUdFOv5jaIl-138" style="edgeStyle=orthogonalEdgeStyle;rounded=0;orthogonalLoop=1;jettySize=auto;html=1;exitX=0.5;exitY=1;exitDx=0;exitDy=0;entryX=0.5;entryY=0;entryDx=0;entryDy=0;" parent="1" source="_edwEU55tXUdFOv5jaIl-140" target="_edwEU55tXUdFOv5jaIl-141" edge="1">
          <mxGeometry relative="1" as="geometry" />
        </mxCell>
        <mxCell id="_edwEU55tXUdFOv5jaIl-139" style="edgeStyle=orthogonalEdgeStyle;rounded=0;orthogonalLoop=1;jettySize=auto;html=1;exitX=1;exitY=0.5;exitDx=0;exitDy=0;entryX=0;entryY=0.5;entryDx=0;entryDy=0;" parent="1" source="_edwEU55tXUdFOv5jaIl-140" target="_edwEU55tXUdFOv5jaIl-142" edge="1">
          <mxGeometry relative="1" as="geometry" />
        </mxCell>
        <mxCell id="_edwEU55tXUdFOv5jaIl-140" value="Did you inspect&lt;br&gt;the logs and fix&lt;br&gt;the crashing app?" style="rhombus;html=1;spacingLeft=0;align=right;fillColor=#fff2cc;strokeColor=#d6b656;labelPosition=left;verticalLabelPosition=middle;verticalAlign=middle;spacingRight=10;" parent="1" vertex="1">
          <mxGeometry x="140" y="740" width="40" height="40" as="geometry" />
        </mxCell>
        <mxCell id="_edwEU55tXUdFOv5jaIl-154" style="edgeStyle=orthogonalEdgeStyle;rounded=0;orthogonalLoop=1;jettySize=auto;html=1;exitX=0.5;exitY=1;exitDx=0;exitDy=0;entryX=0.5;entryY=0;entryDx=0;entryDy=0;" parent="1" source="_edwEU55tXUdFOv5jaIl-141" target="_edwEU55tXUdFOv5jaIl-145" edge="1">
          <mxGeometry relative="1" as="geometry" />
        </mxCell>
        <mxCell id="_edwEU55tXUdFOv5jaIl-141" value="Yes" style="rounded=1;whiteSpace=wrap;html=1;" parent="1" vertex="1">
          <mxGeometry x="140" y="800" width="40" height="20" as="geometry" />
        </mxCell>
        <mxCell id="_edwEU55tXUdFOv5jaIl-166" style="edgeStyle=orthogonalEdgeStyle;rounded=0;orthogonalLoop=1;jettySize=auto;html=1;exitX=1;exitY=0.5;exitDx=0;exitDy=0;entryX=0;entryY=0.5;entryDx=0;entryDy=0;" parent="1" source="_edwEU55tXUdFOv5jaIl-142" target="_edwEU55tXUdFOv5jaIl-162" edge="1">
          <mxGeometry relative="1" as="geometry" />
        </mxCell>
        <mxCell id="_edwEU55tXUdFOv5jaIl-142" value="No" style="rounded=1;whiteSpace=wrap;html=1;" parent="1" vertex="1">
          <mxGeometry x="200" y="750" width="40" height="20" as="geometry" />
        </mxCell>
        <mxCell id="_edwEU55tXUdFOv5jaIl-143" style="edgeStyle=orthogonalEdgeStyle;rounded=0;orthogonalLoop=1;jettySize=auto;html=1;exitX=0.5;exitY=1;exitDx=0;exitDy=0;entryX=0.5;entryY=0;entryDx=0;entryDy=0;" parent="1" source="_edwEU55tXUdFOv5jaIl-145" target="_edwEU55tXUdFOv5jaIl-146" edge="1">
          <mxGeometry relative="1" as="geometry" />
        </mxCell>
        <mxCell id="_edwEU55tXUdFOv5jaIl-144" style="edgeStyle=orthogonalEdgeStyle;rounded=0;orthogonalLoop=1;jettySize=auto;html=1;exitX=1;exitY=0.5;exitDx=0;exitDy=0;entryX=0;entryY=0.5;entryDx=0;entryDy=0;" parent="1" source="_edwEU55tXUdFOv5jaIl-145" target="_edwEU55tXUdFOv5jaIl-147" edge="1">
          <mxGeometry relative="1" as="geometry" />
        </mxCell>
        <mxCell id="_edwEU55tXUdFOv5jaIl-145" value="Did you forget the&lt;br&gt;CMD instruction in&lt;br&gt;the Dockerfile?" style="rhombus;html=1;spacingLeft=0;align=right;fillColor=#fff2cc;strokeColor=#d6b656;labelPosition=left;verticalLabelPosition=middle;verticalAlign=middle;spacingRight=10;" parent="1" vertex="1">
          <mxGeometry x="140" y="840" width="40" height="40" as="geometry" />
        </mxCell>
        <mxCell id="_edwEU55tXUdFOv5jaIl-155" style="edgeStyle=orthogonalEdgeStyle;rounded=0;orthogonalLoop=1;jettySize=auto;html=1;exitX=0.5;exitY=1;exitDx=0;exitDy=0;entryX=0.5;entryY=0;entryDx=0;entryDy=0;" parent="1" source="_edwEU55tXUdFOv5jaIl-146" target="_edwEU55tXUdFOv5jaIl-150" edge="1">
          <mxGeometry relative="1" as="geometry" />
        </mxCell>
        <mxCell id="_edwEU55tXUdFOv5jaIl-146" value="No" style="rounded=1;whiteSpace=wrap;html=1;" parent="1" vertex="1">
          <mxGeometry x="140" y="900" width="40" height="20" as="geometry" />
        </mxCell>
        <mxCell id="_edwEU55tXUdFOv5jaIl-165" style="edgeStyle=orthogonalEdgeStyle;rounded=0;orthogonalLoop=1;jettySize=auto;html=1;exitX=1;exitY=0.5;exitDx=0;exitDy=0;entryX=0;entryY=0.5;entryDx=0;entryDy=0;" parent="1" source="_edwEU55tXUdFOv5jaIl-147" target="_edwEU55tXUdFOv5jaIl-163" edge="1">
          <mxGeometry relative="1" as="geometry" />
        </mxCell>
        <mxCell id="_edwEU55tXUdFOv5jaIl-147" value="Yes" style="rounded=1;whiteSpace=wrap;html=1;" parent="1" vertex="1">
          <mxGeometry x="200" y="850" width="40" height="20" as="geometry" />
        </mxCell>
        <mxCell id="_edwEU55tXUdFOv5jaIl-148" style="edgeStyle=orthogonalEdgeStyle;rounded=0;orthogonalLoop=1;jettySize=auto;html=1;exitX=0.5;exitY=1;exitDx=0;exitDy=0;entryX=0.5;entryY=0;entryDx=0;entryDy=0;" parent="1" source="_edwEU55tXUdFOv5jaIl-150" target="_edwEU55tXUdFOv5jaIl-151" edge="1">
          <mxGeometry relative="1" as="geometry" />
        </mxCell>
        <mxCell id="_edwEU55tXUdFOv5jaIl-149" style="edgeStyle=orthogonalEdgeStyle;rounded=0;orthogonalLoop=1;jettySize=auto;html=1;exitX=1;exitY=0.5;exitDx=0;exitDy=0;entryX=0;entryY=0.5;entryDx=0;entryDy=0;" parent="1" source="_edwEU55tXUdFOv5jaIl-150" target="_edwEU55tXUdFOv5jaIl-152" edge="1">
          <mxGeometry relative="1" as="geometry" />
        </mxCell>
        <mxCell id="_edwEU55tXUdFOv5jaIl-150" value="Is the Pod restarting&lt;br&gt;frequently? Cycling&lt;br&gt;between Running and&lt;br&gt;CrashLoopBackoff?" style="rhombus;html=1;spacingLeft=0;align=right;fillColor=#fff2cc;strokeColor=#d6b656;labelPosition=left;verticalLabelPosition=middle;verticalAlign=middle;spacingRight=10;" parent="1" vertex="1">
          <mxGeometry x="140" y="940" width="40" height="40" as="geometry" />
        </mxCell>
        <mxCell id="_edwEU55tXUdFOv5jaIl-157" style="edgeStyle=orthogonalEdgeStyle;rounded=0;orthogonalLoop=1;jettySize=auto;html=1;exitX=0.5;exitY=1;exitDx=0;exitDy=0;entryX=0.5;entryY=0;entryDx=0;entryDy=0;" parent="1" source="_edwEU55tXUdFOv5jaIl-151" target="_edwEU55tXUdFOv5jaIl-156" edge="1">
          <mxGeometry relative="1" as="geometry" />
        </mxCell>
        <mxCell id="_edwEU55tXUdFOv5jaIl-151" value="No" style="rounded=1;whiteSpace=wrap;html=1;" parent="1" vertex="1">
          <mxGeometry x="140" y="1000" width="40" height="20" as="geometry" />
        </mxCell>
        <mxCell id="_edwEU55tXUdFOv5jaIl-164" style="edgeStyle=orthogonalEdgeStyle;rounded=0;orthogonalLoop=1;jettySize=auto;html=1;exitX=1;exitY=0.5;exitDx=0;exitDy=0;entryX=0;entryY=0.5;entryDx=0;entryDy=0;" parent="1" source="_edwEU55tXUdFOv5jaIl-152" target="_edwEU55tXUdFOv5jaIl-159" edge="1">
          <mxGeometry relative="1" as="geometry" />
        </mxCell>
        <mxCell id="_edwEU55tXUdFOv5jaIl-152" value="Yes" style="rounded=1;whiteSpace=wrap;html=1;" parent="1" vertex="1">
          <mxGeometry x="200" y="950" width="40" height="20" as="geometry" />
        </mxCell>
        <mxCell id="_edwEU55tXUdFOv5jaIl-156" value="Unknown state" style="rounded=0;whiteSpace=wrap;html=1;fillColor=#ffe6cc;strokeColor=#d79b00;" parent="1" vertex="1">
          <mxGeometry x="100" y="1060" width="120" height="40" as="geometry" />
        </mxCell>
        <mxCell id="_edwEU55tXUdFOv5jaIl-159" value="Fix the liveness probe" style="rounded=0;whiteSpace=wrap;html=1;fillColor=#dae8fc;strokeColor=#6c8ebf;" parent="1" vertex="1">
          <mxGeometry x="290" y="940" width="120" height="40" as="geometry" />
        </mxCell>
        <mxCell id="_edwEU55tXUdFOv5jaIl-162" value="Fix the crashing app" style="rounded=0;whiteSpace=wrap;html=1;fillColor=#dae8fc;strokeColor=#6c8ebf;" parent="1" vertex="1">
          <mxGeometry x="290" y="740" width="120" height="40" as="geometry" />
        </mxCell>
        <mxCell id="_edwEU55tXUdFOv5jaIl-163" value="Fix the Dockerfile" style="rounded=0;whiteSpace=wrap;html=1;fillColor=#dae8fc;strokeColor=#6c8ebf;" parent="1" vertex="1">
          <mxGeometry x="290" y="840" width="120" height="40" as="geometry" />
        </mxCell>
        <mxCell id="_edwEU55tXUdFOv5jaIl-167" style="edgeStyle=orthogonalEdgeStyle;rounded=0;orthogonalLoop=1;jettySize=auto;html=1;exitX=0;exitY=0.5;exitDx=0;exitDy=0;entryX=1;entryY=0.5;entryDx=0;entryDy=0;" parent="1" source="_edwEU55tXUdFOv5jaIl-169" target="_edwEU55tXUdFOv5jaIl-170" edge="1">
          <mxGeometry relative="1" as="geometry" />
        </mxCell>
        <mxCell id="_edwEU55tXUdFOv5jaIl-168" style="edgeStyle=orthogonalEdgeStyle;rounded=0;orthogonalLoop=1;jettySize=auto;html=1;exitX=1;exitY=0.5;exitDx=0;exitDy=0;entryX=0;entryY=0.5;entryDx=0;entryDy=0;" parent="1" source="_edwEU55tXUdFOv5jaIl-169" target="_edwEU55tXUdFOv5jaIl-171" edge="1">
          <mxGeometry relative="1" as="geometry" />
        </mxCell>
        <mxCell id="_edwEU55tXUdFOv5jaIl-169" value="Is the Pod in status&lt;br&gt;ContainerCreating?" style="rhombus;html=1;spacingLeft=0;align=center;fillColor=#fff2cc;strokeColor=#d6b656;labelPosition=center;verticalLabelPosition=top;verticalAlign=bottom;spacingRight=0;spacingBottom=10;" parent="1" vertex="1">
          <mxGeometry x="200" y="540" width="40" height="40" as="geometry" />
        </mxCell>
        <mxCell id="_edwEU55tXUdFOv5jaIl-179" style="edgeStyle=orthogonalEdgeStyle;rounded=0;orthogonalLoop=1;jettySize=auto;html=1;exitX=0;exitY=0.5;exitDx=0;exitDy=0;entryX=1;entryY=0.5;entryDx=0;entryDy=0;" parent="1" source="_edwEU55tXUdFOv5jaIl-170" target="_edwEU55tXUdFOv5jaIl-178" edge="1">
          <mxGeometry relative="1" as="geometry" />
        </mxCell>
        <mxCell id="_edwEU55tXUdFOv5jaIl-170" value="Yes" style="rounded=1;whiteSpace=wrap;html=1;" parent="1" vertex="1">
          <mxGeometry x="130" y="550" width="40" height="20" as="geometry" />
        </mxCell>
        <mxCell id="_edwEU55tXUdFOv5jaIl-190" style="edgeStyle=orthogonalEdgeStyle;rounded=0;orthogonalLoop=1;jettySize=auto;html=1;exitX=0.5;exitY=0;exitDx=0;exitDy=0;entryX=0;entryY=0.5;entryDx=0;entryDy=0;" parent="1" source="_edwEU55tXUdFOv5jaIl-171" target="_edwEU55tXUdFOv5jaIl-185" edge="1">
          <mxGeometry relative="1" as="geometry">
            <Array as="points">
              <mxPoint x="290" y="550" />
              <mxPoint x="290" y="520" />
            </Array>
          </mxGeometry>
        </mxCell>
        <mxCell id="_edwEU55tXUdFOv5jaIl-171" value="No" style="rounded=1;whiteSpace=wrap;html=1;" parent="1" vertex="1">
          <mxGeometry x="260" y="550" width="40" height="20" as="geometry" />
        </mxCell>
        <mxCell id="_edwEU55tXUdFOv5jaIl-172" style="edgeStyle=orthogonalEdgeStyle;rounded=0;orthogonalLoop=1;jettySize=auto;html=1;exitX=0;exitY=0.5;exitDx=0;exitDy=0;" parent="1" source="_edwEU55tXUdFOv5jaIl-174" edge="1">
          <mxGeometry relative="1" as="geometry">
            <mxPoint x="60" y="480" as="targetPoint" />
          </mxGeometry>
        </mxCell>
        <mxCell id="_edwEU55tXUdFOv5jaIl-173" style="edgeStyle=orthogonalEdgeStyle;rounded=0;orthogonalLoop=1;jettySize=auto;html=1;exitX=1;exitY=0.5;exitDx=0;exitDy=0;entryX=0;entryY=0.5;entryDx=0;entryDy=0;" parent="1" source="_edwEU55tXUdFOv5jaIl-174" target="_edwEU55tXUdFOv5jaIl-176" edge="1">
          <mxGeometry relative="1" as="geometry" />
        </mxCell>
        <mxCell id="_edwEU55tXUdFOv5jaIl-174" value="Is it failing to&lt;br&gt;mount a volume?" style="rhombus;html=1;spacingLeft=0;align=center;fillColor=#fff2cc;strokeColor=#d6b656;labelPosition=center;verticalLabelPosition=top;verticalAlign=bottom;spacingRight=0;spacingBottom=10;" parent="1" vertex="1">
          <mxGeometry x="80" y="460" width="40" height="40" as="geometry" />
        </mxCell>
        <mxCell id="_edwEU55tXUdFOv5jaIl-187" style="edgeStyle=orthogonalEdgeStyle;rounded=0;orthogonalLoop=1;jettySize=auto;html=1;exitX=0;exitY=0.5;exitDx=0;exitDy=0;entryX=1;entryY=0.5;entryDx=0;entryDy=0;" parent="1" source="_edwEU55tXUdFOv5jaIl-175" target="_edwEU55tXUdFOv5jaIl-186" edge="1">
          <mxGeometry relative="1" as="geometry" />
        </mxCell>
        <mxCell id="_edwEU55tXUdFOv5jaIl-175" value="Yes" style="rounded=1;whiteSpace=wrap;html=1;" parent="1" vertex="1">
          <mxGeometry x="20" y="470" width="40" height="20" as="geometry" />
        </mxCell>
        <mxCell id="_edwEU55tXUdFOv5jaIl-189" style="edgeStyle=orthogonalEdgeStyle;rounded=0;orthogonalLoop=1;jettySize=auto;html=1;exitX=1;exitY=0.5;exitDx=0;exitDy=0;entryX=0;entryY=0.5;entryDx=0;entryDy=0;" parent="1" source="_edwEU55tXUdFOv5jaIl-176" target="_edwEU55tXUdFOv5jaIl-185" edge="1">
          <mxGeometry relative="1" as="geometry">
            <Array as="points">
              <mxPoint x="290" y="480" />
              <mxPoint x="290" y="520" />
            </Array>
          </mxGeometry>
        </mxCell>
        <mxCell id="_edwEU55tXUdFOv5jaIl-176" value="No" style="rounded=1;whiteSpace=wrap;html=1;" parent="1" vertex="1">
          <mxGeometry x="140" y="470" width="40" height="20" as="geometry" />
        </mxCell>
        <mxCell id="_edwEU55tXUdFOv5jaIl-188" style="edgeStyle=orthogonalEdgeStyle;rounded=0;orthogonalLoop=1;jettySize=auto;html=1;exitX=0.5;exitY=0;exitDx=0;exitDy=0;entryX=0.5;entryY=1;entryDx=0;entryDy=0;" parent="1" source="_edwEU55tXUdFOv5jaIl-178" target="_edwEU55tXUdFOv5jaIl-174" edge="1">
          <mxGeometry relative="1" as="geometry" />
        </mxCell>
        <mxCell id="_edwEU55tXUdFOv5jaIl-178" value="&lt;div&gt;$ kubectl describe pod &amp;lt;pod-name&amp;gt;&lt;br&gt;&lt;/div&gt;" style="rounded=1;whiteSpace=wrap;html=1;fillColor=#647687;fontColor=#ffffff;strokeColor=#314354;" parent="1" vertex="1">
          <mxGeometry x="-120" y="540" width="200" height="40" as="geometry" />
        </mxCell>
        <mxCell id="_edwEU55tXUdFOv5jaIl-193" style="edgeStyle=orthogonalEdgeStyle;rounded=0;orthogonalLoop=1;jettySize=auto;html=1;exitX=0.5;exitY=1;exitDx=0;exitDy=0;entryX=0.5;entryY=0;entryDx=0;entryDy=0;" parent="1" source="_edwEU55tXUdFOv5jaIl-185" target="_edwEU55tXUdFOv5jaIl-191" edge="1">
          <mxGeometry relative="1" as="geometry">
            <Array as="points" />
          </mxGeometry>
        </mxCell>
        <mxCell id="_edwEU55tXUdFOv5jaIl-194" style="edgeStyle=orthogonalEdgeStyle;rounded=0;orthogonalLoop=1;jettySize=auto;html=1;exitX=1;exitY=0.5;exitDx=0;exitDy=0;entryX=1;entryY=0.5;entryDx=0;entryDy=0;" parent="1" source="_edwEU55tXUdFOv5jaIl-185" target="_edwEU55tXUdFOv5jaIl-192" edge="1">
          <mxGeometry relative="1" as="geometry">
            <Array as="points">
              <mxPoint x="410" y="520" />
              <mxPoint x="410" y="380" />
            </Array>
          </mxGeometry>
        </mxCell>
        <mxCell id="_edwEU55tXUdFOv5jaIl-185" value="Is there any&lt;br&gt;container Running?" style="rhombus;html=1;spacingLeft=0;align=center;fillColor=#fff2cc;strokeColor=#d6b656;labelPosition=center;verticalLabelPosition=top;verticalAlign=bottom;spacingRight=0;spacingBottom=10;" parent="1" vertex="1">
          <mxGeometry x="330" y="500" width="40" height="40" as="geometry" />
        </mxCell>
        <mxCell id="_edwEU55tXUdFOv5jaIl-186" value="Fix the volume mount" style="rounded=0;whiteSpace=wrap;html=1;fillColor=#dae8fc;strokeColor=#6c8ebf;" parent="1" vertex="1">
          <mxGeometry x="-140" y="460" width="120" height="40" as="geometry" />
        </mxCell>
        <mxCell id="_edwEU55tXUdFOv5jaIl-198" style="edgeStyle=orthogonalEdgeStyle;rounded=0;orthogonalLoop=1;jettySize=auto;html=1;exitX=0.5;exitY=1;exitDx=0;exitDy=0;entryX=0.5;entryY=0;entryDx=0;entryDy=0;" parent="1" source="_edwEU55tXUdFOv5jaIl-191" target="_edwEU55tXUdFOv5jaIl-195" edge="1">
          <mxGeometry relative="1" as="geometry" />
        </mxCell>
        <mxCell id="_edwEU55tXUdFOv5jaIl-191" value="Yes" style="rounded=1;whiteSpace=wrap;html=1;" parent="1" vertex="1">
          <mxGeometry x="330" y="600" width="40" height="20" as="geometry" />
        </mxCell>
        <mxCell id="_edwEU55tXUdFOv5jaIl-197" style="edgeStyle=orthogonalEdgeStyle;rounded=0;orthogonalLoop=1;jettySize=auto;html=1;exitX=0;exitY=0.5;exitDx=0;exitDy=0;entryX=1;entryY=0.5;entryDx=0;entryDy=0;" parent="1" source="_edwEU55tXUdFOv5jaIl-192" target="_edwEU55tXUdFOv5jaIl-196" edge="1">
          <mxGeometry relative="1" as="geometry" />
        </mxCell>
        <mxCell id="_edwEU55tXUdFOv5jaIl-192" value="No" style="rounded=1;whiteSpace=wrap;html=1;" parent="1" vertex="1">
          <mxGeometry x="330" y="370" width="40" height="20" as="geometry" />
        </mxCell>
        <mxCell id="_edwEU55tXUdFOv5jaIl-195" value="The issue is with the node-lifecycle controller" style="rounded=0;whiteSpace=wrap;html=1;fillColor=#dae8fc;strokeColor=#6c8ebf;" parent="1" vertex="1">
          <mxGeometry x="280" y="640" width="140" height="40" as="geometry" />
        </mxCell>
        <mxCell id="_edwEU55tXUdFOv5jaIl-196" value="Consult StackOverflow" style="rounded=0;whiteSpace=wrap;html=1;fillColor=#ffe6cc;strokeColor=#d79b00;" parent="1" vertex="1">
          <mxGeometry x="170" y="360" width="120" height="40" as="geometry" />
        </mxCell>
        <mxCell id="_edwEU55tXUdFOv5jaIl-208" style="edgeStyle=orthogonalEdgeStyle;rounded=0;orthogonalLoop=1;jettySize=auto;html=1;exitX=0.5;exitY=1;exitDx=0;exitDy=0;entryX=0.5;entryY=0;entryDx=0;entryDy=0;" parent="1" source="_edwEU55tXUdFOv5jaIl-199" target="_edwEU55tXUdFOv5jaIl-205" edge="1">
          <mxGeometry relative="1" as="geometry" />
        </mxCell>
        <mxCell id="_edwEU55tXUdFOv5jaIl-199" value="&lt;div&gt;$ kubectl describe pod &amp;lt;pod-name&amp;gt;&lt;br&gt;&lt;/div&gt;" style="rounded=1;whiteSpace=wrap;html=1;fillColor=#647687;strokeColor=#314354;fontColor=#ffffff;" parent="1" vertex="1">
          <mxGeometry x="-800" y="820" width="200" height="40" as="geometry" />
        </mxCell>
        <mxCell id="_edwEU55tXUdFOv5jaIl-202" style="edgeStyle=orthogonalEdgeStyle;rounded=0;orthogonalLoop=1;jettySize=auto;html=1;exitX=1;exitY=0.5;exitDx=0;exitDy=0;" parent="1" source="_edwEU55tXUdFOv5jaIl-200" target="_edwEU55tXUdFOv5jaIl-199" edge="1">
          <mxGeometry relative="1" as="geometry" />
        </mxCell>
        <mxCell id="_edwEU55tXUdFOv5jaIl-200" value="No" style="rounded=1;whiteSpace=wrap;html=1;" parent="1" vertex="1">
          <mxGeometry x="-860" y="830" width="40" height="20" as="geometry" />
        </mxCell>
        <mxCell id="_edwEU55tXUdFOv5jaIl-203" style="edgeStyle=orthogonalEdgeStyle;rounded=0;orthogonalLoop=1;jettySize=auto;html=1;exitX=0.5;exitY=1;exitDx=0;exitDy=0;entryX=0.5;entryY=0;entryDx=0;entryDy=0;" parent="1" source="_edwEU55tXUdFOv5jaIl-205" target="_edwEU55tXUdFOv5jaIl-206" edge="1">
          <mxGeometry relative="1" as="geometry" />
        </mxCell>
        <mxCell id="_edwEU55tXUdFOv5jaIl-204" style="edgeStyle=orthogonalEdgeStyle;rounded=0;orthogonalLoop=1;jettySize=auto;html=1;exitX=1;exitY=0.5;exitDx=0;exitDy=0;entryX=0;entryY=0.5;entryDx=0;entryDy=0;" parent="1" source="_edwEU55tXUdFOv5jaIl-205" target="_edwEU55tXUdFOv5jaIl-207" edge="1">
          <mxGeometry relative="1" as="geometry" />
        </mxCell>
        <mxCell id="_edwEU55tXUdFOv5jaIl-205" value="Is the Readiness&lt;br&gt;probe failing?" style="rhombus;html=1;spacingLeft=0;align=right;fillColor=#fff2cc;strokeColor=#d6b656;labelPosition=left;verticalLabelPosition=middle;verticalAlign=middle;spacingRight=10;" parent="1" vertex="1">
          <mxGeometry x="-720" y="880" width="40" height="40" as="geometry" />
        </mxCell>
        <mxCell id="_edwEU55tXUdFOv5jaIl-212" style="edgeStyle=orthogonalEdgeStyle;rounded=0;orthogonalLoop=1;jettySize=auto;html=1;exitX=1;exitY=0.5;exitDx=0;exitDy=0;entryX=0;entryY=0.5;entryDx=0;entryDy=0;" parent="1" source="_edwEU55tXUdFOv5jaIl-206" target="_edwEU55tXUdFOv5jaIl-210" edge="1">
          <mxGeometry relative="1" as="geometry" />
        </mxCell>
        <mxCell id="_edwEU55tXUdFOv5jaIl-206" value="No" style="rounded=1;whiteSpace=wrap;html=1;" parent="1" vertex="1">
          <mxGeometry x="-720" y="950" width="40" height="20" as="geometry" />
        </mxCell>
        <mxCell id="_edwEU55tXUdFOv5jaIl-211" style="edgeStyle=orthogonalEdgeStyle;rounded=0;orthogonalLoop=1;jettySize=auto;html=1;exitX=1;exitY=0.5;exitDx=0;exitDy=0;" parent="1" source="_edwEU55tXUdFOv5jaIl-207" target="_edwEU55tXUdFOv5jaIl-209" edge="1">
          <mxGeometry relative="1" as="geometry" />
        </mxCell>
        <mxCell id="_edwEU55tXUdFOv5jaIl-207" value="Yes" style="rounded=1;whiteSpace=wrap;html=1;" parent="1" vertex="1">
          <mxGeometry x="-660" y="890" width="40" height="20" as="geometry" />
        </mxCell>
        <mxCell id="_edwEU55tXUdFOv5jaIl-209" value="Fix the Readiness probe" style="rounded=0;whiteSpace=wrap;html=1;fillColor=#dae8fc;strokeColor=#6c8ebf;" parent="1" vertex="1">
          <mxGeometry x="-560" y="880" width="120" height="40" as="geometry" />
        </mxCell>
        <mxCell id="_edwEU55tXUdFOv5jaIl-210" value="Unknown State" style="rounded=0;whiteSpace=wrap;html=1;fillColor=#ffe6cc;strokeColor=#d79b00;" parent="1" vertex="1">
          <mxGeometry x="-560" y="940" width="120" height="40" as="geometry" />
        </mxCell>
        <mxCell id="_edwEU55tXUdFOv5jaIl-215" style="edgeStyle=orthogonalEdgeStyle;rounded=0;orthogonalLoop=1;jettySize=auto;html=1;exitX=0.5;exitY=1;exitDx=0;exitDy=0;entryX=0.5;entryY=0;entryDx=0;entryDy=0;" parent="1" source="_edwEU55tXUdFOv5jaIl-217" target="_edwEU55tXUdFOv5jaIl-218" edge="1">
          <mxGeometry relative="1" as="geometry" />
        </mxCell>
        <mxCell id="_edwEU55tXUdFOv5jaIl-216" style="edgeStyle=orthogonalEdgeStyle;rounded=0;orthogonalLoop=1;jettySize=auto;html=1;exitX=1;exitY=0.5;exitDx=0;exitDy=0;entryX=0;entryY=0.5;entryDx=0;entryDy=0;" parent="1" source="_edwEU55tXUdFOv5jaIl-217" target="_edwEU55tXUdFOv5jaIl-219" edge="1">
          <mxGeometry relative="1" as="geometry" />
        </mxCell>
        <mxCell id="_edwEU55tXUdFOv5jaIl-217" value="Can you access&lt;br&gt;the app?" style="rhombus;html=1;spacingLeft=0;align=right;fillColor=#fff2cc;strokeColor=#d6b656;labelPosition=left;verticalLabelPosition=middle;verticalAlign=middle;spacingRight=10;" parent="1" vertex="1">
          <mxGeometry x="-920" y="1080" width="40" height="40" as="geometry" />
        </mxCell>
        <mxCell id="_edwEU55tXUdFOv5jaIl-232" style="edgeStyle=orthogonalEdgeStyle;rounded=0;orthogonalLoop=1;jettySize=auto;html=1;exitX=0.5;exitY=1;exitDx=0;exitDy=0;entryX=0.5;entryY=1;entryDx=0;entryDy=0;fontSize=16;" parent="1" source="_edwEU55tXUdFOv5jaIl-218" target="_edwEU55tXUdFOv5jaIl-231" edge="1">
          <mxGeometry relative="1" as="geometry">
            <Array as="points">
              <mxPoint x="-900" y="1200" />
              <mxPoint x="-380" y="1200" />
            </Array>
          </mxGeometry>
        </mxCell>
        <mxCell id="_edwEU55tXUdFOv5jaIl-218" value="Yes" style="rounded=1;whiteSpace=wrap;html=1;" parent="1" vertex="1">
          <mxGeometry x="-920" y="1140" width="40" height="20" as="geometry" />
        </mxCell>
        <mxCell id="_edwEU55tXUdFOv5jaIl-230" style="edgeStyle=orthogonalEdgeStyle;rounded=0;orthogonalLoop=1;jettySize=auto;html=1;exitX=1;exitY=0.5;exitDx=0;exitDy=0;entryX=0;entryY=0.5;entryDx=0;entryDy=0;" parent="1" source="_edwEU55tXUdFOv5jaIl-219" target="_edwEU55tXUdFOv5jaIl-223" edge="1">
          <mxGeometry relative="1" as="geometry" />
        </mxCell>
        <mxCell id="_edwEU55tXUdFOv5jaIl-219" value="No" style="rounded=1;whiteSpace=wrap;html=1;" parent="1" vertex="1">
          <mxGeometry x="-860" y="1090" width="40" height="20" as="geometry" />
        </mxCell>
        <mxCell id="_edwEU55tXUdFOv5jaIl-221" style="edgeStyle=orthogonalEdgeStyle;rounded=0;orthogonalLoop=1;jettySize=auto;html=1;exitX=0.5;exitY=1;exitDx=0;exitDy=0;entryX=0.5;entryY=0;entryDx=0;entryDy=0;" parent="1" source="_edwEU55tXUdFOv5jaIl-223" target="_edwEU55tXUdFOv5jaIl-225" edge="1">
          <mxGeometry relative="1" as="geometry" />
        </mxCell>
        <mxCell id="_edwEU55tXUdFOv5jaIl-222" style="edgeStyle=orthogonalEdgeStyle;rounded=0;orthogonalLoop=1;jettySize=auto;html=1;exitX=1;exitY=0.5;exitDx=0;exitDy=0;entryX=0;entryY=0.5;entryDx=0;entryDy=0;" parent="1" source="_edwEU55tXUdFOv5jaIl-223" target="_edwEU55tXUdFOv5jaIl-227" edge="1">
          <mxGeometry relative="1" as="geometry" />
        </mxCell>
        <mxCell id="_edwEU55tXUdFOv5jaIl-223" value="Is the port&lt;br&gt;exposed correctly by&lt;br&gt;the container and&lt;br&gt;&lt;div&gt;listening on&lt;/div&gt;&lt;div&gt;0.0.0.0?&lt;br&gt;&lt;/div&gt;" style="rhombus;html=1;spacingLeft=0;align=center;fillColor=#fff2cc;strokeColor=#d6b656;labelPosition=center;verticalLabelPosition=top;verticalAlign=bottom;spacingRight=0;spacingBottom=10;" parent="1" vertex="1">
          <mxGeometry x="-760" y="1080" width="40" height="40" as="geometry" />
        </mxCell>
        <mxCell id="_edwEU55tXUdFOv5jaIl-224" style="edgeStyle=orthogonalEdgeStyle;rounded=0;orthogonalLoop=1;jettySize=auto;html=1;exitX=1;exitY=0.5;exitDx=0;exitDy=0;entryX=0;entryY=0.5;entryDx=0;entryDy=0;" parent="1" source="_edwEU55tXUdFOv5jaIl-225" target="_edwEU55tXUdFOv5jaIl-229" edge="1">
          <mxGeometry relative="1" as="geometry" />
        </mxCell>
        <mxCell id="_edwEU55tXUdFOv5jaIl-225" value="Yes" style="rounded=1;whiteSpace=wrap;html=1;" parent="1" vertex="1">
          <mxGeometry x="-760" y="1140" width="40" height="20" as="geometry" />
        </mxCell>
        <mxCell id="_edwEU55tXUdFOv5jaIl-226" style="edgeStyle=orthogonalEdgeStyle;rounded=0;orthogonalLoop=1;jettySize=auto;html=1;exitX=1;exitY=0.5;exitDx=0;exitDy=0;" parent="1" source="_edwEU55tXUdFOv5jaIl-227" target="_edwEU55tXUdFOv5jaIl-228" edge="1">
          <mxGeometry relative="1" as="geometry" />
        </mxCell>
        <mxCell id="_edwEU55tXUdFOv5jaIl-227" value="No" style="rounded=1;whiteSpace=wrap;html=1;" parent="1" vertex="1">
          <mxGeometry x="-700" y="1090" width="40" height="20" as="geometry" />
        </mxCell>
        <mxCell id="_edwEU55tXUdFOv5jaIl-228" value="Fix the app. It should listen on 0.0.0. Update the containerPort" style="rounded=0;whiteSpace=wrap;html=1;fillColor=#dae8fc;strokeColor=#6c8ebf;" parent="1" vertex="1">
          <mxGeometry x="-640" y="1020" width="120" height="60" as="geometry" />
        </mxCell>
        <mxCell id="_edwEU55tXUdFOv5jaIl-229" value="Unknown State" style="rounded=0;whiteSpace=wrap;html=1;fillColor=#ffe6cc;strokeColor=#d79b00;" parent="1" vertex="1">
          <mxGeometry x="-640" y="1130" width="120" height="40" as="geometry" />
        </mxCell>
        <mxCell id="bx5m1vtf9I4t_BTQg2L4-2" style="edgeStyle=orthogonalEdgeStyle;rounded=0;orthogonalLoop=1;jettySize=auto;html=1;exitX=1;exitY=0.5;exitDx=0;exitDy=0;" edge="1" parent="1" source="_edwEU55tXUdFOv5jaIl-231" target="bx5m1vtf9I4t_BTQg2L4-1">
          <mxGeometry relative="1" as="geometry" />
        </mxCell>
        <mxCell id="_edwEU55tXUdFOv5jaIl-231" value="Pods are&lt;br style=&quot;font-size: 16px;&quot;&gt;running&lt;br style=&quot;font-size: 16px;&quot;&gt;correctly" style="rounded=0;whiteSpace=wrap;html=1;fillColor=#d5e8d4;strokeColor=#82b366;fontSize=16;fontStyle=1" parent="1" vertex="1">
          <mxGeometry x="-440" y="1100" width="120" height="80" as="geometry" />
        </mxCell>
        <mxCell id="_edwEU55tXUdFOv5jaIl-253" style="edgeStyle=orthogonalEdgeStyle;rounded=0;orthogonalLoop=1;jettySize=auto;html=1;exitX=1;exitY=0.5;exitDx=0;exitDy=0;entryX=0;entryY=0.5;entryDx=0;entryDy=0;fontSize=16;" parent="1" source="_edwEU55tXUdFOv5jaIl-233" target="_edwEU55tXUdFOv5jaIl-245" edge="1">
          <mxGeometry relative="1" as="geometry" />
        </mxCell>
        <mxCell id="_edwEU55tXUdFOv5jaIl-233" value="$ kubectl get replicasets" style="rounded=1;whiteSpace=wrap;html=1;fillColor=#647687;fontColor=#ffffff;strokeColor=#314354;" parent="1" vertex="1">
          <mxGeometry x="-960" y="80" width="160" height="40" as="geometry" />
        </mxCell>
        <mxCell id="_edwEU55tXUdFOv5jaIl-243" style="edgeStyle=orthogonalEdgeStyle;rounded=0;orthogonalLoop=1;jettySize=auto;html=1;exitX=0.5;exitY=1;exitDx=0;exitDy=0;entryX=0.5;entryY=0;entryDx=0;entryDy=0;" parent="1" source="_edwEU55tXUdFOv5jaIl-245" target="_edwEU55tXUdFOv5jaIl-249" edge="1">
          <mxGeometry relative="1" as="geometry" />
        </mxCell>
        <mxCell id="_edwEU55tXUdFOv5jaIl-244" style="edgeStyle=orthogonalEdgeStyle;rounded=0;orthogonalLoop=1;jettySize=auto;html=1;exitX=1;exitY=0.5;exitDx=0;exitDy=0;" parent="1" source="_edwEU55tXUdFOv5jaIl-245" target="_edwEU55tXUdFOv5jaIl-250" edge="1">
          <mxGeometry relative="1" as="geometry" />
        </mxCell>
        <mxCell id="_edwEU55tXUdFOv5jaIl-245" value="&lt;div&gt;Do the number of&lt;/div&gt;&lt;div&gt;desired pods match the&lt;/div&gt;&lt;div&gt;number of current pods?&lt;br&gt;&lt;/div&gt;" style="rhombus;html=1;spacingLeft=0;align=center;fillColor=#fff2cc;strokeColor=#d6b656;spacingTop=0;spacingRight=0;spacingBottom=10;labelPosition=center;verticalLabelPosition=top;verticalAlign=bottom;" parent="1" vertex="1">
          <mxGeometry x="-720" y="80" width="40" height="40" as="geometry" />
        </mxCell>
        <mxCell id="_edwEU55tXUdFOv5jaIl-247" style="edgeStyle=orthogonalEdgeStyle;rounded=0;orthogonalLoop=1;jettySize=auto;html=1;exitX=0;exitY=0.5;exitDx=0;exitDy=0;entryX=0.5;entryY=0;entryDx=0;entryDy=0;" parent="1" source="_edwEU55tXUdFOv5jaIl-249" target="_edwEU55tXUdFOv5jaIl-2" edge="1">
          <mxGeometry relative="1" as="geometry">
            <mxPoint x="-620" y="90" as="targetPoint" />
          </mxGeometry>
        </mxCell>
        <mxCell id="_edwEU55tXUdFOv5jaIl-249" value="Yes" style="rounded=1;whiteSpace=wrap;html=1;" parent="1" vertex="1">
          <mxGeometry x="-720" y="140" width="40" height="20" as="geometry" />
        </mxCell>
        <mxCell id="_edwEU55tXUdFOv5jaIl-256" style="edgeStyle=orthogonalEdgeStyle;rounded=0;orthogonalLoop=1;jettySize=auto;html=1;exitX=1;exitY=0.5;exitDx=0;exitDy=0;entryX=0;entryY=0.5;entryDx=0;entryDy=0;fontSize=16;" parent="1" source="_edwEU55tXUdFOv5jaIl-250" target="_edwEU55tXUdFOv5jaIl-255" edge="1">
          <mxGeometry relative="1" as="geometry" />
        </mxCell>
        <mxCell id="_edwEU55tXUdFOv5jaIl-250" value="No" style="rounded=1;whiteSpace=wrap;html=1;" parent="1" vertex="1">
          <mxGeometry x="-640" y="90" width="40" height="20" as="geometry" />
        </mxCell>
        <mxCell id="_edwEU55tXUdFOv5jaIl-257" style="edgeStyle=orthogonalEdgeStyle;rounded=0;orthogonalLoop=1;jettySize=auto;html=1;exitX=1;exitY=0.5;exitDx=0;exitDy=0;entryX=0;entryY=0.5;entryDx=0;entryDy=0;fontSize=16;" parent="1" source="_edwEU55tXUdFOv5jaIl-255" target="_edwEU55tXUdFOv5jaIl-38" edge="1">
          <mxGeometry relative="1" as="geometry" />
        </mxCell>
        <mxCell id="_edwEU55tXUdFOv5jaIl-255" value="$ kubectl describe replicaset &amp;lt;replica-set&amp;gt;" style="rounded=1;whiteSpace=wrap;html=1;fillColor=#647687;fontColor=#ffffff;strokeColor=#314354;" parent="1" vertex="1">
          <mxGeometry x="-560" y="40" width="160" height="40" as="geometry" />
        </mxCell>
        <mxCell id="_edwEU55tXUdFOv5jaIl-258" value="Unknown state" style="rounded=0;whiteSpace=wrap;html=1;fillColor=#ffe6cc;strokeColor=#d79b00;" parent="1" vertex="1">
          <mxGeometry x="-160" y="80" width="120" height="40" as="geometry" />
        </mxCell>
        <mxCell id="bx5m1vtf9I4t_BTQg2L4-8" style="edgeStyle=orthogonalEdgeStyle;rounded=0;orthogonalLoop=1;jettySize=auto;html=1;exitX=0.5;exitY=1;exitDx=0;exitDy=0;entryX=0.5;entryY=0;entryDx=0;entryDy=0;" edge="1" parent="1" source="bx5m1vtf9I4t_BTQg2L4-1" target="bx5m1vtf9I4t_BTQg2L4-5">
          <mxGeometry relative="1" as="geometry" />
        </mxCell>
        <mxCell id="bx5m1vtf9I4t_BTQg2L4-1" value="&lt;div&gt;$ kubectl describe service &amp;lt;service-name&amp;gt;&lt;br&gt;&lt;/div&gt;" style="rounded=1;whiteSpace=wrap;html=1;fillColor=#647687;strokeColor=#314354;fontColor=#ffffff;" vertex="1" parent="1">
          <mxGeometry x="-280" y="1140" width="240" height="40" as="geometry" />
        </mxCell>
        <mxCell id="bx5m1vtf9I4t_BTQg2L4-3" style="edgeStyle=orthogonalEdgeStyle;rounded=0;orthogonalLoop=1;jettySize=auto;html=1;exitX=0.5;exitY=1;exitDx=0;exitDy=0;entryX=0.5;entryY=0;entryDx=0;entryDy=0;" edge="1" source="bx5m1vtf9I4t_BTQg2L4-5" target="bx5m1vtf9I4t_BTQg2L4-6" parent="1">
          <mxGeometry relative="1" as="geometry" />
        </mxCell>
        <mxCell id="bx5m1vtf9I4t_BTQg2L4-4" style="edgeStyle=orthogonalEdgeStyle;rounded=0;orthogonalLoop=1;jettySize=auto;html=1;exitX=1;exitY=0.5;exitDx=0;exitDy=0;entryX=0;entryY=0.5;entryDx=0;entryDy=0;" edge="1" source="bx5m1vtf9I4t_BTQg2L4-5" target="bx5m1vtf9I4t_BTQg2L4-7" parent="1">
          <mxGeometry relative="1" as="geometry" />
        </mxCell>
        <mxCell id="bx5m1vtf9I4t_BTQg2L4-5" value="&lt;div&gt;Can you see a&lt;/div&gt;&lt;div&gt;list of endpoints?&lt;/div&gt;" style="rhombus;html=1;spacingLeft=0;align=right;fillColor=#fff2cc;strokeColor=#d6b656;labelPosition=left;verticalLabelPosition=middle;verticalAlign=middle;spacingRight=10;" vertex="1" parent="1">
          <mxGeometry x="-180" y="1220" width="40" height="40" as="geometry" />
        </mxCell>
        <mxCell id="bx5m1vtf9I4t_BTQg2L4-38" style="edgeStyle=orthogonalEdgeStyle;rounded=0;orthogonalLoop=1;jettySize=auto;html=1;exitX=0.5;exitY=1;exitDx=0;exitDy=0;entryX=0.5;entryY=0;entryDx=0;entryDy=0;" edge="1" parent="1" source="bx5m1vtf9I4t_BTQg2L4-6" target="bx5m1vtf9I4t_BTQg2L4-37">
          <mxGeometry relative="1" as="geometry" />
        </mxCell>
        <mxCell id="bx5m1vtf9I4t_BTQg2L4-6" value="Yes" style="rounded=1;whiteSpace=wrap;html=1;" vertex="1" parent="1">
          <mxGeometry x="-180" y="1280" width="40" height="20" as="geometry" />
        </mxCell>
        <mxCell id="bx5m1vtf9I4t_BTQg2L4-14" style="edgeStyle=orthogonalEdgeStyle;rounded=0;orthogonalLoop=1;jettySize=auto;html=1;exitX=1;exitY=0.5;exitDx=0;exitDy=0;entryX=0;entryY=0.5;entryDx=0;entryDy=0;" edge="1" parent="1" source="bx5m1vtf9I4t_BTQg2L4-7" target="bx5m1vtf9I4t_BTQg2L4-11">
          <mxGeometry relative="1" as="geometry" />
        </mxCell>
        <mxCell id="bx5m1vtf9I4t_BTQg2L4-7" value="No" style="rounded=1;whiteSpace=wrap;html=1;" vertex="1" parent="1">
          <mxGeometry x="-120" y="1230" width="40" height="20" as="geometry" />
        </mxCell>
        <mxCell id="bx5m1vtf9I4t_BTQg2L4-9" style="edgeStyle=orthogonalEdgeStyle;rounded=0;orthogonalLoop=1;jettySize=auto;html=1;exitX=0.5;exitY=1;exitDx=0;exitDy=0;entryX=0.5;entryY=0;entryDx=0;entryDy=0;" edge="1" parent="1" source="bx5m1vtf9I4t_BTQg2L4-11" target="bx5m1vtf9I4t_BTQg2L4-12">
          <mxGeometry relative="1" as="geometry" />
        </mxCell>
        <mxCell id="bx5m1vtf9I4t_BTQg2L4-10" style="edgeStyle=orthogonalEdgeStyle;rounded=0;orthogonalLoop=1;jettySize=auto;html=1;exitX=1;exitY=0.5;exitDx=0;exitDy=0;entryX=0;entryY=0.5;entryDx=0;entryDy=0;" edge="1" parent="1" source="bx5m1vtf9I4t_BTQg2L4-11" target="bx5m1vtf9I4t_BTQg2L4-13">
          <mxGeometry relative="1" as="geometry" />
        </mxCell>
        <mxCell id="bx5m1vtf9I4t_BTQg2L4-11" value="Is the Selector&lt;br&gt;&lt;div&gt;matching the&lt;/div&gt;&lt;div&gt;right Pod label?&lt;/div&gt;" style="rhombus;html=1;spacingLeft=0;align=center;fillColor=#fff2cc;strokeColor=#d6b656;labelPosition=center;verticalLabelPosition=top;verticalAlign=bottom;spacingRight=0;spacingBottom=10;" vertex="1" parent="1">
          <mxGeometry y="1220" width="40" height="40" as="geometry" />
        </mxCell>
        <mxCell id="bx5m1vtf9I4t_BTQg2L4-32" style="edgeStyle=orthogonalEdgeStyle;rounded=0;orthogonalLoop=1;jettySize=auto;html=1;exitX=0.5;exitY=1;exitDx=0;exitDy=0;entryX=0.5;entryY=0;entryDx=0;entryDy=0;" edge="1" parent="1" source="bx5m1vtf9I4t_BTQg2L4-12" target="bx5m1vtf9I4t_BTQg2L4-29">
          <mxGeometry relative="1" as="geometry" />
        </mxCell>
        <mxCell id="bx5m1vtf9I4t_BTQg2L4-12" value="Yes" style="rounded=1;whiteSpace=wrap;html=1;" vertex="1" parent="1">
          <mxGeometry y="1280" width="40" height="20" as="geometry" />
        </mxCell>
        <mxCell id="bx5m1vtf9I4t_BTQg2L4-16" style="edgeStyle=orthogonalEdgeStyle;rounded=0;orthogonalLoop=1;jettySize=auto;html=1;exitX=1;exitY=0.5;exitDx=0;exitDy=0;entryX=0;entryY=0.5;entryDx=0;entryDy=0;" edge="1" parent="1" source="bx5m1vtf9I4t_BTQg2L4-13" target="bx5m1vtf9I4t_BTQg2L4-15">
          <mxGeometry relative="1" as="geometry" />
        </mxCell>
        <mxCell id="bx5m1vtf9I4t_BTQg2L4-13" value="No" style="rounded=1;whiteSpace=wrap;html=1;" vertex="1" parent="1">
          <mxGeometry x="60" y="1230" width="40" height="20" as="geometry" />
        </mxCell>
        <mxCell id="bx5m1vtf9I4t_BTQg2L4-15" value="&lt;div&gt;Fix the Service selector. It has to match the Pod labels&lt;/div&gt;" style="rounded=0;whiteSpace=wrap;html=1;fillColor=#dae8fc;strokeColor=#6c8ebf;" vertex="1" parent="1">
          <mxGeometry x="140" y="1220" width="120" height="40" as="geometry" />
        </mxCell>
        <mxCell id="bx5m1vtf9I4t_BTQg2L4-27" style="edgeStyle=orthogonalEdgeStyle;rounded=0;orthogonalLoop=1;jettySize=auto;html=1;exitX=0.5;exitY=1;exitDx=0;exitDy=0;entryX=0.5;entryY=0;entryDx=0;entryDy=0;" edge="1" source="bx5m1vtf9I4t_BTQg2L4-29" target="bx5m1vtf9I4t_BTQg2L4-30" parent="1">
          <mxGeometry relative="1" as="geometry" />
        </mxCell>
        <mxCell id="bx5m1vtf9I4t_BTQg2L4-28" style="edgeStyle=orthogonalEdgeStyle;rounded=0;orthogonalLoop=1;jettySize=auto;html=1;exitX=1;exitY=0.5;exitDx=0;exitDy=0;entryX=0;entryY=0.5;entryDx=0;entryDy=0;" edge="1" source="bx5m1vtf9I4t_BTQg2L4-29" target="bx5m1vtf9I4t_BTQg2L4-31" parent="1">
          <mxGeometry relative="1" as="geometry" />
        </mxCell>
        <mxCell id="bx5m1vtf9I4t_BTQg2L4-29" value="&lt;div&gt;Does the Pod&lt;br&gt;have an IP address&lt;/div&gt;&lt;div&gt;assigned?&lt;/div&gt;" style="rhombus;html=1;spacingLeft=0;align=right;fillColor=#fff2cc;strokeColor=#d6b656;labelPosition=left;verticalLabelPosition=middle;verticalAlign=middle;spacingRight=10;" vertex="1" parent="1">
          <mxGeometry y="1340" width="40" height="40" as="geometry" />
        </mxCell>
        <mxCell id="bx5m1vtf9I4t_BTQg2L4-36" style="edgeStyle=orthogonalEdgeStyle;rounded=0;orthogonalLoop=1;jettySize=auto;html=1;exitX=0.5;exitY=1;exitDx=0;exitDy=0;entryX=0;entryY=0.5;entryDx=0;entryDy=0;" edge="1" parent="1" source="bx5m1vtf9I4t_BTQg2L4-30" target="bx5m1vtf9I4t_BTQg2L4-35">
          <mxGeometry relative="1" as="geometry" />
        </mxCell>
        <mxCell id="bx5m1vtf9I4t_BTQg2L4-30" value="Yes" style="rounded=1;whiteSpace=wrap;html=1;" vertex="1" parent="1">
          <mxGeometry y="1400" width="40" height="20" as="geometry" />
        </mxCell>
        <mxCell id="bx5m1vtf9I4t_BTQg2L4-34" style="edgeStyle=orthogonalEdgeStyle;rounded=0;orthogonalLoop=1;jettySize=auto;html=1;exitX=1;exitY=0.5;exitDx=0;exitDy=0;entryX=0;entryY=0.5;entryDx=0;entryDy=0;" edge="1" parent="1" source="bx5m1vtf9I4t_BTQg2L4-31" target="bx5m1vtf9I4t_BTQg2L4-33">
          <mxGeometry relative="1" as="geometry" />
        </mxCell>
        <mxCell id="bx5m1vtf9I4t_BTQg2L4-31" value="No" style="rounded=1;whiteSpace=wrap;html=1;" vertex="1" parent="1">
          <mxGeometry x="60" y="1350" width="40" height="20" as="geometry" />
        </mxCell>
        <mxCell id="bx5m1vtf9I4t_BTQg2L4-33" value="There is an issue with the Controller manager" style="rounded=0;whiteSpace=wrap;html=1;fillColor=#ffe6cc;strokeColor=#d79b00;" vertex="1" parent="1">
          <mxGeometry x="140" y="1340" width="120" height="40" as="geometry" />
        </mxCell>
        <mxCell id="bx5m1vtf9I4t_BTQg2L4-35" value="There is an issue with the Kubelet" style="rounded=0;whiteSpace=wrap;html=1;fillColor=#ffe6cc;strokeColor=#d79b00;" vertex="1" parent="1">
          <mxGeometry x="140" y="1420" width="120" height="40" as="geometry" />
        </mxCell>
        <mxCell id="bx5m1vtf9I4t_BTQg2L4-44" style="edgeStyle=orthogonalEdgeStyle;rounded=0;orthogonalLoop=1;jettySize=auto;html=1;exitX=0.5;exitY=1;exitDx=0;exitDy=0;entryX=0.5;entryY=0;entryDx=0;entryDy=0;" edge="1" parent="1" source="bx5m1vtf9I4t_BTQg2L4-37" target="bx5m1vtf9I4t_BTQg2L4-41">
          <mxGeometry relative="1" as="geometry" />
        </mxCell>
        <mxCell id="bx5m1vtf9I4t_BTQg2L4-37" value="&lt;div&gt;$ kubectl port-forward service/&amp;lt;service-name&amp;gt; 8080:&amp;lt;service-port&amp;gt;&lt;br&gt;&lt;/div&gt;" style="rounded=1;whiteSpace=wrap;html=1;fillColor=#647687;strokeColor=#314354;fontColor=#ffffff;" vertex="1" parent="1">
          <mxGeometry x="-340" y="1480" width="360" height="40" as="geometry" />
        </mxCell>
        <mxCell id="bx5m1vtf9I4t_BTQg2L4-39" style="edgeStyle=orthogonalEdgeStyle;rounded=0;orthogonalLoop=1;jettySize=auto;html=1;exitX=0;exitY=0.5;exitDx=0;exitDy=0;entryX=1;entryY=0.5;entryDx=0;entryDy=0;" edge="1" source="bx5m1vtf9I4t_BTQg2L4-41" target="bx5m1vtf9I4t_BTQg2L4-42" parent="1">
          <mxGeometry relative="1" as="geometry" />
        </mxCell>
        <mxCell id="bx5m1vtf9I4t_BTQg2L4-40" style="edgeStyle=orthogonalEdgeStyle;rounded=0;orthogonalLoop=1;jettySize=auto;html=1;exitX=1;exitY=0.5;exitDx=0;exitDy=0;entryX=0;entryY=0.5;entryDx=0;entryDy=0;" edge="1" source="bx5m1vtf9I4t_BTQg2L4-41" target="bx5m1vtf9I4t_BTQg2L4-43" parent="1">
          <mxGeometry relative="1" as="geometry" />
        </mxCell>
        <mxCell id="bx5m1vtf9I4t_BTQg2L4-41" value="Can you visit the app?" style="rhombus;html=1;spacingLeft=0;align=center;fillColor=#fff2cc;strokeColor=#d6b656;labelPosition=center;verticalLabelPosition=bottom;verticalAlign=top;spacingRight=0;spacingBottom=0;spacingTop=10;" vertex="1" parent="1">
          <mxGeometry x="-180" y="1560" width="40" height="40" as="geometry" />
        </mxCell>
        <mxCell id="bx5m1vtf9I4t_BTQg2L4-56" style="edgeStyle=orthogonalEdgeStyle;rounded=0;orthogonalLoop=1;jettySize=auto;html=1;exitX=0;exitY=0.5;exitDx=0;exitDy=0;" edge="1" parent="1" source="bx5m1vtf9I4t_BTQg2L4-42" target="bx5m1vtf9I4t_BTQg2L4-55">
          <mxGeometry relative="1" as="geometry" />
        </mxCell>
        <mxCell id="bx5m1vtf9I4t_BTQg2L4-42" value="Yes" style="rounded=1;whiteSpace=wrap;html=1;" vertex="1" parent="1">
          <mxGeometry x="-250" y="1570" width="40" height="20" as="geometry" />
        </mxCell>
        <mxCell id="bx5m1vtf9I4t_BTQg2L4-54" style="edgeStyle=orthogonalEdgeStyle;rounded=0;orthogonalLoop=1;jettySize=auto;html=1;exitX=1;exitY=0.5;exitDx=0;exitDy=0;entryX=0;entryY=0.5;entryDx=0;entryDy=0;" edge="1" parent="1" source="bx5m1vtf9I4t_BTQg2L4-43" target="bx5m1vtf9I4t_BTQg2L4-47">
          <mxGeometry relative="1" as="geometry" />
        </mxCell>
        <mxCell id="bx5m1vtf9I4t_BTQg2L4-43" value="No" style="rounded=1;whiteSpace=wrap;html=1;" vertex="1" parent="1">
          <mxGeometry x="-120" y="1570" width="40" height="20" as="geometry" />
        </mxCell>
        <mxCell id="bx5m1vtf9I4t_BTQg2L4-45" style="edgeStyle=orthogonalEdgeStyle;rounded=0;orthogonalLoop=1;jettySize=auto;html=1;exitX=0.5;exitY=1;exitDx=0;exitDy=0;entryX=0.5;entryY=0;entryDx=0;entryDy=0;" edge="1" parent="1" source="bx5m1vtf9I4t_BTQg2L4-47" target="bx5m1vtf9I4t_BTQg2L4-48">
          <mxGeometry relative="1" as="geometry" />
        </mxCell>
        <mxCell id="bx5m1vtf9I4t_BTQg2L4-46" style="edgeStyle=orthogonalEdgeStyle;rounded=0;orthogonalLoop=1;jettySize=auto;html=1;exitX=1;exitY=0.5;exitDx=0;exitDy=0;entryX=0;entryY=0.5;entryDx=0;entryDy=0;" edge="1" parent="1" source="bx5m1vtf9I4t_BTQg2L4-47" target="bx5m1vtf9I4t_BTQg2L4-49">
          <mxGeometry relative="1" as="geometry" />
        </mxCell>
        <mxCell id="bx5m1vtf9I4t_BTQg2L4-47" value="&lt;div&gt;Is the targetPort on the&lt;/div&gt;&lt;div&gt;Service matching the&lt;br&gt;&lt;/div&gt;containerPort in the Pod?" style="rhombus;html=1;spacingLeft=0;align=center;fillColor=#fff2cc;strokeColor=#d6b656;labelPosition=center;verticalLabelPosition=top;verticalAlign=bottom;spacingRight=0;spacingBottom=10;" vertex="1" parent="1">
          <mxGeometry x="80" y="1560" width="40" height="40" as="geometry" />
        </mxCell>
        <mxCell id="bx5m1vtf9I4t_BTQg2L4-53" style="edgeStyle=orthogonalEdgeStyle;rounded=0;orthogonalLoop=1;jettySize=auto;html=1;exitX=1;exitY=0.5;exitDx=0;exitDy=0;entryX=0;entryY=0.5;entryDx=0;entryDy=0;" edge="1" parent="1" source="bx5m1vtf9I4t_BTQg2L4-48" target="bx5m1vtf9I4t_BTQg2L4-51">
          <mxGeometry relative="1" as="geometry" />
        </mxCell>
        <mxCell id="bx5m1vtf9I4t_BTQg2L4-48" value="Yes" style="rounded=1;whiteSpace=wrap;html=1;" vertex="1" parent="1">
          <mxGeometry x="80" y="1620" width="40" height="20" as="geometry" />
        </mxCell>
        <mxCell id="bx5m1vtf9I4t_BTQg2L4-52" style="edgeStyle=orthogonalEdgeStyle;rounded=0;orthogonalLoop=1;jettySize=auto;html=1;exitX=1;exitY=0.5;exitDx=0;exitDy=0;entryX=0;entryY=0.5;entryDx=0;entryDy=0;" edge="1" parent="1" source="bx5m1vtf9I4t_BTQg2L4-49" target="bx5m1vtf9I4t_BTQg2L4-50">
          <mxGeometry relative="1" as="geometry" />
        </mxCell>
        <mxCell id="bx5m1vtf9I4t_BTQg2L4-49" value="No" style="rounded=1;whiteSpace=wrap;html=1;" vertex="1" parent="1">
          <mxGeometry x="140" y="1570" width="40" height="20" as="geometry" />
        </mxCell>
        <mxCell id="bx5m1vtf9I4t_BTQg2L4-50" value="Fix the service targetPort and the containerPort" style="rounded=0;whiteSpace=wrap;html=1;fillColor=#dae8fc;strokeColor=#6c8ebf;" vertex="1" parent="1">
          <mxGeometry x="240" y="1560" width="120" height="40" as="geometry" />
        </mxCell>
        <mxCell id="bx5m1vtf9I4t_BTQg2L4-51" value="The issue could be with KubeProxy" style="rounded=0;whiteSpace=wrap;html=1;fillColor=#ffe6cc;strokeColor=#d79b00;" vertex="1" parent="1">
          <mxGeometry x="240" y="1610" width="120" height="40" as="geometry" />
        </mxCell>
        <mxCell id="bx5m1vtf9I4t_BTQg2L4-63" style="edgeStyle=orthogonalEdgeStyle;rounded=0;orthogonalLoop=1;jettySize=auto;html=1;exitX=0.5;exitY=0;exitDx=0;exitDy=0;entryX=0.5;entryY=0;entryDx=0;entryDy=0;" edge="1" parent="1" source="bx5m1vtf9I4t_BTQg2L4-55" target="bx5m1vtf9I4t_BTQg2L4-57">
          <mxGeometry relative="1" as="geometry" />
        </mxCell>
        <mxCell id="bx5m1vtf9I4t_BTQg2L4-55" value="The Service is &lt;br style=&quot;font-size: 16px&quot;&gt;running&lt;br style=&quot;font-size: 16px&quot;&gt;correctly" style="rounded=0;whiteSpace=wrap;html=1;fillColor=#d5e8d4;strokeColor=#82b366;fontSize=16;fontStyle=1" vertex="1" parent="1">
          <mxGeometry x="-480" y="1540" width="120" height="80" as="geometry" />
        </mxCell>
        <mxCell id="bx5m1vtf9I4t_BTQg2L4-64" style="edgeStyle=orthogonalEdgeStyle;rounded=0;orthogonalLoop=1;jettySize=auto;html=1;exitX=0.5;exitY=1;exitDx=0;exitDy=0;" edge="1" parent="1" source="bx5m1vtf9I4t_BTQg2L4-57" target="bx5m1vtf9I4t_BTQg2L4-60">
          <mxGeometry relative="1" as="geometry" />
        </mxCell>
        <mxCell id="bx5m1vtf9I4t_BTQg2L4-57" value="&lt;div&gt;$ kubectl describe ingress &amp;lt;ingress-name&amp;gt;&lt;br&gt;&lt;/div&gt;" style="rounded=1;whiteSpace=wrap;html=1;fillColor=#647687;strokeColor=#314354;fontColor=#ffffff;" vertex="1" parent="1">
          <mxGeometry x="-1080" y="1260" width="280" height="40" as="geometry" />
        </mxCell>
        <mxCell id="bx5m1vtf9I4t_BTQg2L4-58" style="edgeStyle=orthogonalEdgeStyle;rounded=0;orthogonalLoop=1;jettySize=auto;html=1;exitX=0.5;exitY=1;exitDx=0;exitDy=0;entryX=0.5;entryY=0;entryDx=0;entryDy=0;" edge="1" source="bx5m1vtf9I4t_BTQg2L4-60" target="bx5m1vtf9I4t_BTQg2L4-61" parent="1">
          <mxGeometry relative="1" as="geometry" />
        </mxCell>
        <mxCell id="bx5m1vtf9I4t_BTQg2L4-59" style="edgeStyle=orthogonalEdgeStyle;rounded=0;orthogonalLoop=1;jettySize=auto;html=1;exitX=1;exitY=0.5;exitDx=0;exitDy=0;entryX=0;entryY=0.5;entryDx=0;entryDy=0;" edge="1" source="bx5m1vtf9I4t_BTQg2L4-60" target="bx5m1vtf9I4t_BTQg2L4-62" parent="1">
          <mxGeometry relative="1" as="geometry" />
        </mxCell>
        <mxCell id="bx5m1vtf9I4t_BTQg2L4-60" value="Can you see a&lt;br&gt;list of Backends?" style="rhombus;html=1;spacingLeft=0;align=right;fillColor=#fff2cc;strokeColor=#d6b656;labelPosition=left;verticalLabelPosition=middle;verticalAlign=middle;spacingRight=10;" vertex="1" parent="1">
          <mxGeometry x="-960" y="1320" width="40" height="40" as="geometry" />
        </mxCell>
        <mxCell id="bx5m1vtf9I4t_BTQg2L4-80" style="edgeStyle=orthogonalEdgeStyle;rounded=0;orthogonalLoop=1;jettySize=auto;html=1;exitX=1;exitY=0.5;exitDx=0;exitDy=0;entryX=0.5;entryY=0;entryDx=0;entryDy=0;" edge="1" parent="1" source="bx5m1vtf9I4t_BTQg2L4-61" target="bx5m1vtf9I4t_BTQg2L4-79">
          <mxGeometry relative="1" as="geometry" />
        </mxCell>
        <mxCell id="bx5m1vtf9I4t_BTQg2L4-61" value="Yes" style="rounded=1;whiteSpace=wrap;html=1;" vertex="1" parent="1">
          <mxGeometry x="-960" y="1380" width="40" height="20" as="geometry" />
        </mxCell>
        <mxCell id="bx5m1vtf9I4t_BTQg2L4-70" style="edgeStyle=orthogonalEdgeStyle;rounded=0;orthogonalLoop=1;jettySize=auto;html=1;exitX=1;exitY=0.5;exitDx=0;exitDy=0;entryX=0;entryY=0.5;entryDx=0;entryDy=0;" edge="1" parent="1" source="bx5m1vtf9I4t_BTQg2L4-62" target="bx5m1vtf9I4t_BTQg2L4-67">
          <mxGeometry relative="1" as="geometry" />
        </mxCell>
        <mxCell id="bx5m1vtf9I4t_BTQg2L4-62" value="No" style="rounded=1;whiteSpace=wrap;html=1;" vertex="1" parent="1">
          <mxGeometry x="-900" y="1330" width="40" height="20" as="geometry" />
        </mxCell>
        <mxCell id="bx5m1vtf9I4t_BTQg2L4-65" style="edgeStyle=orthogonalEdgeStyle;rounded=0;orthogonalLoop=1;jettySize=auto;html=1;exitX=0.5;exitY=1;exitDx=0;exitDy=0;entryX=0.5;entryY=0;entryDx=0;entryDy=0;" edge="1" parent="1" source="bx5m1vtf9I4t_BTQg2L4-67" target="bx5m1vtf9I4t_BTQg2L4-68">
          <mxGeometry relative="1" as="geometry" />
        </mxCell>
        <mxCell id="bx5m1vtf9I4t_BTQg2L4-66" style="edgeStyle=orthogonalEdgeStyle;rounded=0;orthogonalLoop=1;jettySize=auto;html=1;exitX=1;exitY=0.5;exitDx=0;exitDy=0;entryX=0;entryY=0.5;entryDx=0;entryDy=0;" edge="1" parent="1" source="bx5m1vtf9I4t_BTQg2L4-67" target="bx5m1vtf9I4t_BTQg2L4-69">
          <mxGeometry relative="1" as="geometry" />
        </mxCell>
        <mxCell id="bx5m1vtf9I4t_BTQg2L4-67" value="Are the serviceName&lt;br&gt;and servicePort&lt;br&gt;matching the Service?" style="rhombus;html=1;spacingLeft=0;align=center;fillColor=#fff2cc;strokeColor=#d6b656;labelPosition=center;verticalLabelPosition=top;verticalAlign=bottom;spacingRight=0;spacingBottom=10;" vertex="1" parent="1">
          <mxGeometry x="-680" y="1320" width="40" height="40" as="geometry" />
        </mxCell>
        <mxCell id="bx5m1vtf9I4t_BTQg2L4-82" style="edgeStyle=orthogonalEdgeStyle;rounded=0;orthogonalLoop=1;jettySize=auto;html=1;exitX=0.5;exitY=1;exitDx=0;exitDy=0;entryX=0;entryY=0.5;entryDx=0;entryDy=0;" edge="1" parent="1" source="bx5m1vtf9I4t_BTQg2L4-68" target="bx5m1vtf9I4t_BTQg2L4-73">
          <mxGeometry relative="1" as="geometry" />
        </mxCell>
        <mxCell id="bx5m1vtf9I4t_BTQg2L4-68" value="Yes" style="rounded=1;whiteSpace=wrap;html=1;" vertex="1" parent="1">
          <mxGeometry x="-680" y="1380" width="40" height="20" as="geometry" />
        </mxCell>
        <mxCell id="bx5m1vtf9I4t_BTQg2L4-72" style="edgeStyle=orthogonalEdgeStyle;rounded=0;orthogonalLoop=1;jettySize=auto;html=1;exitX=1;exitY=0.5;exitDx=0;exitDy=0;entryX=0;entryY=0.5;entryDx=0;entryDy=0;" edge="1" parent="1" source="bx5m1vtf9I4t_BTQg2L4-69" target="bx5m1vtf9I4t_BTQg2L4-71">
          <mxGeometry relative="1" as="geometry" />
        </mxCell>
        <mxCell id="bx5m1vtf9I4t_BTQg2L4-69" value="No" style="rounded=1;whiteSpace=wrap;html=1;" vertex="1" parent="1">
          <mxGeometry x="-620" y="1330" width="40" height="20" as="geometry" />
        </mxCell>
        <mxCell id="bx5m1vtf9I4t_BTQg2L4-71" value="Fix the ingress serviceName and servicePort" style="rounded=0;whiteSpace=wrap;html=1;fillColor=#dae8fc;strokeColor=#6c8ebf;" vertex="1" parent="1">
          <mxGeometry x="-560" y="1310" width="120" height="60" as="geometry" />
        </mxCell>
        <mxCell id="bx5m1vtf9I4t_BTQg2L4-73" value="The issue is specific to the Ingress controller. Consult the docs for your Ingress." style="rounded=0;whiteSpace=wrap;html=1;fillColor=#ffe6cc;strokeColor=#d79b00;" vertex="1" parent="1">
          <mxGeometry x="-560" y="1400" width="120" height="80" as="geometry" />
        </mxCell>
        <mxCell id="bx5m1vtf9I4t_BTQg2L4-74" style="edgeStyle=orthogonalEdgeStyle;rounded=0;orthogonalLoop=1;jettySize=auto;html=1;exitX=0.5;exitY=1;exitDx=0;exitDy=0;entryX=0.5;entryY=0;entryDx=0;entryDy=0;" edge="1" parent="1" source="bx5m1vtf9I4t_BTQg2L4-76" target="bx5m1vtf9I4t_BTQg2L4-77">
          <mxGeometry relative="1" as="geometry" />
        </mxCell>
        <mxCell id="bx5m1vtf9I4t_BTQg2L4-75" style="edgeStyle=orthogonalEdgeStyle;rounded=0;orthogonalLoop=1;jettySize=auto;html=1;exitX=1;exitY=0.5;exitDx=0;exitDy=0;entryX=0;entryY=0.5;entryDx=0;entryDy=0;" edge="1" parent="1" source="bx5m1vtf9I4t_BTQg2L4-76" target="bx5m1vtf9I4t_BTQg2L4-78">
          <mxGeometry relative="1" as="geometry" />
        </mxCell>
        <mxCell id="bx5m1vtf9I4t_BTQg2L4-76" value="Can you visit&lt;br&gt;the app?" style="rhombus;html=1;spacingLeft=0;align=right;fillColor=#fff2cc;strokeColor=#d6b656;labelPosition=left;verticalLabelPosition=middle;verticalAlign=middle;spacingRight=10;" vertex="1" parent="1">
          <mxGeometry x="-1000" y="1480" width="40" height="40" as="geometry" />
        </mxCell>
        <mxCell id="bx5m1vtf9I4t_BTQg2L4-85" style="edgeStyle=orthogonalEdgeStyle;rounded=0;orthogonalLoop=1;jettySize=auto;html=1;exitX=0.5;exitY=1;exitDx=0;exitDy=0;entryX=0.5;entryY=0;entryDx=0;entryDy=0;" edge="1" parent="1" source="bx5m1vtf9I4t_BTQg2L4-77" target="bx5m1vtf9I4t_BTQg2L4-84">
          <mxGeometry relative="1" as="geometry" />
        </mxCell>
        <mxCell id="bx5m1vtf9I4t_BTQg2L4-77" value="Yes" style="rounded=1;whiteSpace=wrap;html=1;" vertex="1" parent="1">
          <mxGeometry x="-1000" y="1540" width="40" height="20" as="geometry" />
        </mxCell>
        <mxCell id="bx5m1vtf9I4t_BTQg2L4-83" style="edgeStyle=orthogonalEdgeStyle;rounded=0;orthogonalLoop=1;jettySize=auto;html=1;exitX=1;exitY=0.5;exitDx=0;exitDy=0;entryX=0;entryY=0.5;entryDx=0;entryDy=0;" edge="1" parent="1" source="bx5m1vtf9I4t_BTQg2L4-78" target="bx5m1vtf9I4t_BTQg2L4-73">
          <mxGeometry relative="1" as="geometry">
            <Array as="points">
              <mxPoint x="-660" y="1500" />
              <mxPoint x="-660" y="1440" />
            </Array>
          </mxGeometry>
        </mxCell>
        <mxCell id="bx5m1vtf9I4t_BTQg2L4-78" value="No" style="rounded=1;whiteSpace=wrap;html=1;" vertex="1" parent="1">
          <mxGeometry x="-940" y="1490" width="40" height="20" as="geometry" />
        </mxCell>
        <mxCell id="bx5m1vtf9I4t_BTQg2L4-81" style="edgeStyle=orthogonalEdgeStyle;rounded=0;orthogonalLoop=1;jettySize=auto;html=1;exitX=0.25;exitY=1;exitDx=0;exitDy=0;entryX=0.5;entryY=0;entryDx=0;entryDy=0;" edge="1" parent="1" source="bx5m1vtf9I4t_BTQg2L4-79" target="bx5m1vtf9I4t_BTQg2L4-76">
          <mxGeometry relative="1" as="geometry" />
        </mxCell>
        <mxCell id="bx5m1vtf9I4t_BTQg2L4-79" value="&lt;div&gt;$ kubectl port-forward &amp;lt;ingress-pod-name&amp;gt; 8080:&amp;lt;ingress-port&amp;gt;&lt;br&gt;&lt;/div&gt;" style="rounded=1;whiteSpace=wrap;html=1;fillColor=#647687;strokeColor=#314354;fontColor=#ffffff;" vertex="1" parent="1">
          <mxGeometry x="-1080" y="1420" width="360" height="40" as="geometry" />
        </mxCell>
        <mxCell id="bx5m1vtf9I4t_BTQg2L4-91" style="edgeStyle=orthogonalEdgeStyle;rounded=0;orthogonalLoop=1;jettySize=auto;html=1;exitX=1;exitY=0.5;exitDx=0;exitDy=0;entryX=0;entryY=0.5;entryDx=0;entryDy=0;" edge="1" parent="1" source="bx5m1vtf9I4t_BTQg2L4-84" target="bx5m1vtf9I4t_BTQg2L4-88">
          <mxGeometry relative="1" as="geometry" />
        </mxCell>
        <mxCell id="bx5m1vtf9I4t_BTQg2L4-84" value="The Ingress is running correctly" style="rounded=0;whiteSpace=wrap;html=1;fillColor=#d5e8d4;strokeColor=#82b366;fontSize=16;fontStyle=1" vertex="1" parent="1">
          <mxGeometry x="-1040" y="1580" width="120" height="80" as="geometry" />
        </mxCell>
        <mxCell id="bx5m1vtf9I4t_BTQg2L4-86" style="edgeStyle=orthogonalEdgeStyle;rounded=0;orthogonalLoop=1;jettySize=auto;html=1;exitX=0.5;exitY=1;exitDx=0;exitDy=0;entryX=0.5;entryY=0;entryDx=0;entryDy=0;" edge="1" parent="1" source="bx5m1vtf9I4t_BTQg2L4-88" target="bx5m1vtf9I4t_BTQg2L4-89">
          <mxGeometry relative="1" as="geometry" />
        </mxCell>
        <mxCell id="bx5m1vtf9I4t_BTQg2L4-87" style="edgeStyle=orthogonalEdgeStyle;rounded=0;orthogonalLoop=1;jettySize=auto;html=1;exitX=1;exitY=0.5;exitDx=0;exitDy=0;entryX=0;entryY=0.5;entryDx=0;entryDy=0;" edge="1" parent="1" source="bx5m1vtf9I4t_BTQg2L4-88" target="bx5m1vtf9I4t_BTQg2L4-90">
          <mxGeometry relative="1" as="geometry" />
        </mxCell>
        <mxCell id="bx5m1vtf9I4t_BTQg2L4-88" value="The app should be&lt;br&gt;working. Can you visit&lt;br&gt;it from the public internet?" style="rhombus;html=1;spacingLeft=0;align=center;fillColor=#fff2cc;strokeColor=#d6b656;labelPosition=center;verticalLabelPosition=top;verticalAlign=bottom;spacingRight=0;spacingBottom=10;" vertex="1" parent="1">
          <mxGeometry x="-880" y="1580" width="40" height="40" as="geometry" />
        </mxCell>
        <mxCell id="bx5m1vtf9I4t_BTQg2L4-96" style="edgeStyle=orthogonalEdgeStyle;rounded=0;orthogonalLoop=1;jettySize=auto;html=1;exitX=1;exitY=0.5;exitDx=0;exitDy=0;entryX=0;entryY=0.5;entryDx=0;entryDy=0;fontSize=23;" edge="1" parent="1" source="bx5m1vtf9I4t_BTQg2L4-89" target="bx5m1vtf9I4t_BTQg2L4-92">
          <mxGeometry relative="1" as="geometry" />
        </mxCell>
        <mxCell id="bx5m1vtf9I4t_BTQg2L4-89" value="Yes" style="rounded=1;whiteSpace=wrap;html=1;" vertex="1" parent="1">
          <mxGeometry x="-880" y="1640" width="40" height="20" as="geometry" />
        </mxCell>
        <mxCell id="bx5m1vtf9I4t_BTQg2L4-95" style="edgeStyle=orthogonalEdgeStyle;rounded=0;orthogonalLoop=1;jettySize=auto;html=1;exitX=1;exitY=0.5;exitDx=0;exitDy=0;entryX=0;entryY=0.5;entryDx=0;entryDy=0;fontSize=23;" edge="1" parent="1" source="bx5m1vtf9I4t_BTQg2L4-90" target="bx5m1vtf9I4t_BTQg2L4-94">
          <mxGeometry relative="1" as="geometry" />
        </mxCell>
        <mxCell id="bx5m1vtf9I4t_BTQg2L4-90" value="No" style="rounded=1;whiteSpace=wrap;html=1;" vertex="1" parent="1">
          <mxGeometry x="-820" y="1590" width="40" height="20" as="geometry" />
        </mxCell>
        <mxCell id="bx5m1vtf9I4t_BTQg2L4-92" value="END" style="rounded=0;whiteSpace=wrap;html=1;fillColor=#60a917;strokeColor=#2D7600;fontSize=23;fontStyle=1;fontColor=#ffffff;" vertex="1" parent="1">
          <mxGeometry x="-640" y="1630" width="120" height="40" as="geometry" />
        </mxCell>
        <mxCell id="bx5m1vtf9I4t_BTQg2L4-94" value="The issue is likely to be with the infrastructure and how the cluster is exposed." style="rounded=0;whiteSpace=wrap;html=1;fillColor=#ffe6cc;strokeColor=#d79b00;" vertex="1" parent="1">
          <mxGeometry x="-640" y="1520" width="120" height="80" as="geometry" />
        </mxCell>
      </root>
    </mxGraphModel>
  </diagram>
</mxfile>
